<?xml version="1.0" encoding="UTF-8"?>
<!--Generator: Apple Native CoreSVG 326-->
<!DOCTYPE svg
PUBLIC "-//W3C//DTD SVG 1.1//EN"
       "http://www.w3.org/Graphics/SVG/1.1/DTD/svg11.dtd">
<svg version="1.1" xmlns="http://www.w3.org/2000/svg" xmlns:xlink="http://www.w3.org/1999/xlink" viewBox="0 0 19.0551 15.4107">
 <g>
  <rect height="15.4107" opacity="0" width="19.0551" x="0" y="0"/>
  <path d="M18.6937 7.68183C18.6937 7.34763 18.5557 7.01433 18.3138 6.7791L11.9137 0.395447C11.643 0.121601 11.3479 0 11.0421 0C10.34 0 9.84775 0.494411 9.84775 1.1597C9.84775 1.51519 9.99109 1.80501 10.2157 2.02647L12.4032 4.2344L15.8702 7.41244L16.3202 6.66641L12.7626 6.46488L1.24444 6.46488C0.500622 6.46488 0 6.95974 0 7.68183C0 8.40392 0.500622 8.89878 1.24444 8.89878L12.7626 8.89878L16.3202 8.69725L15.8702 7.96099L12.4032 11.1293L10.2157 13.3341C9.99109 13.5458 9.84775 13.8454 9.84775 14.2009C9.84775 14.8661 10.34 15.3606 11.0421 15.3606C11.3479 15.3606 11.643 15.2323 11.9004 14.9784L18.3138 8.58456C18.5557 8.34933 18.6937 8.01603 18.6937 7.68183Z" fill="yellow"/>
 </g>
</svg>
