<?xml version="1.0" encoding="UTF-8"?>
<!DOCTYPE svg
PUBLIC "-//W3C//DTD SVG 1.1//EN"
       "http://www.w3.org/Graphics/SVG/1.1/DTD/svg11.dtd">
<svg version="1.1" xmlns="http://www.w3.org/2000/svg" xmlns:xlink="http://www.w3.org/1999/xlink" viewBox="0 0 25 25">
 <g>
  <rect height="25" opacity="0" width="25" x="0" y="0"/>
  <path d="M0 16.8262C0 17.5488 0.566406 18.1152 1.29883 18.1152L2.44141 18.1152C3.17383 18.1152 3.74023 17.5488 3.74023 16.8262L3.74023 15.4102L19.375 15.4102L19.375 16.8262C19.375 17.5488 19.9316 18.1152 20.6641 18.1152L21.8164 18.1152C22.5488 18.1152 23.1055 17.5488 23.1055 16.8262L23.1055 10.3027C23.1055 8.66211 22.8809 7.67578 21.875 6.57227L20.8887 5.50781L19.8633 2.56836C19.3066 0.966797 18.2227 0.292969 16.875 0.136719C16.2207 0.0585938 14.082 0 11.5527 0C9.0332 0 6.89453 0.0585938 6.24023 0.136719C4.88281 0.292969 3.79883 0.966797 3.24219 2.56836L2.2168 5.50781L1.24023 6.57227C0.224609 7.67578 0 8.66211 0 10.3027ZM4.90234 5.55664C4.42383 5.55664 4.26758 5.21484 4.41406 4.78516L5.01953 2.95898C5.24414 2.28516 5.60547 2.07031 6.19141 1.99219C6.875 1.89453 8.76953 1.82617 11.5527 1.82617C14.3457 1.82617 16.2305 1.89453 16.9043 1.99219C17.5 2.07031 17.8516 2.28516 18.0762 2.95898L18.6914 4.78516C18.8379 5.21484 18.6719 5.55664 18.2031 5.55664ZM3.53516 11.6602C2.92969 11.6602 2.49023 11.2207 2.49023 10.625L2.49023 9.10156C2.49023 8.50586 2.92969 8.07617 3.53516 8.07617C4.13086 8.07617 4.57031 8.49609 4.57031 9.10156L4.57031 10.625C4.57031 11.2305 4.13086 11.6602 3.53516 11.6602ZM9.33594 11.1914C8.85742 11.1914 8.53516 10.8789 8.53516 10.3516L8.53516 9.36523C8.53516 8.85742 8.85742 8.54492 9.33594 8.54492L13.7402 8.54492C14.2285 8.54492 14.5508 8.85742 14.5508 9.36523L14.5508 10.3516C14.5508 10.8789 14.2285 11.1914 13.7402 11.1914ZM19.668 11.6602C19.082 11.6602 18.6328 11.2207 18.6328 10.625L18.6328 9.10156C18.6328 8.50586 19.082 8.07617 19.668 8.07617C20.2734 8.07617 20.7129 8.49609 20.7129 9.10156L20.7129 10.625C20.7129 11.2305 20.2734 11.6602 19.668 11.6602Z" fill="white" fill-opacity="0.85"/>
 </g>
</svg>
