<?xml version="1.0" encoding="UTF-8"?>
<!--Generator: Apple Native CoreSVG 326-->
<!DOCTYPE svg
PUBLIC "-//W3C//DTD SVG 1.1//EN"
       "http://www.w3.org/Graphics/SVG/1.1/DTD/svg11.dtd">
<svg version="1.1" xmlns="http://www.w3.org/2000/svg" xmlns:xlink="http://www.w3.org/1999/xlink" viewBox="0 0 25 25">
 <g>
  <rect height="25" opacity="0" width="25" x="0" y="0"/>
  <path d="M19.5898 18.2617L22.5 18.2617C23.8477 18.2617 24.541 17.6172 24.541 16.3379L24.541 1.93359C24.541 0.654297 23.8477 0 22.5 0L19.5898 0C18.2617 0 17.5684 0.654297 17.5684 1.93359L17.5684 16.3379C17.5684 17.6172 18.2617 18.2617 19.5898 18.2617Z" fill="white" fill-opacity="0.85"/>
  <path d="M10.8105 18.2617L13.7207 18.2617C15.0684 18.2617 15.752 17.6172 15.752 16.3379L15.752 4.78516C15.752 3.50586 15.0684 2.85156 13.7207 2.85156L10.8105 2.85156C9.47266 2.85156 8.7793 3.50586 8.7793 4.78516L8.7793 16.3379C8.7793 17.6172 9.47266 18.2617 10.8105 18.2617Z" fill="white" fill-opacity="0.85"/>
  <path d="M2.03125 18.2617L4.93164 18.2617C6.2793 18.2617 6.97266 17.6172 6.97266 16.3379L6.97266 7.62695C6.97266 6.34766 6.2793 5.69336 4.93164 5.69336L2.03125 5.69336C0.693359 5.69336 0 6.34766 0 7.62695L0 16.3379C0 17.6172 0.693359 18.2617 2.03125 18.2617Z" fill="white" fill-opacity="0.85"/>
 </g>
</svg>
