<?xml version="1.0" encoding="UTF-8"?>
<!--Generator: Apple Native CoreSVG 326-->
<!DOCTYPE svg
PUBLIC "-//W3C//DTD SVG 1.1//EN"
       "http://www.w3.org/Graphics/SVG/1.1/DTD/svg11.dtd">
<svg version="1.1" xmlns="http://www.w3.org/2000/svg" xmlns:xlink="http://www.w3.org/1999/xlink" viewBox="0 0 12.5093 17.5529">
 <g>
  <rect height="17.5529" opacity="0" width="12.5093" x="0" y="0"/>
  <path d="M12.5093 8.77158C12.5031 8.37216 12.3588 8.03887 12.0366 7.72645L4.52897 0.371912C4.27244 0.12205 3.97065 0 3.60184 0C2.874 0 2.28152 0.579605 2.28152 1.31101C2.28152 1.67005 2.42886 2.00335 2.6938 2.26873L9.37463 8.76847L2.6938 15.2744C2.43197 15.5367 2.28152 15.8664 2.28152 16.2353C2.28152 16.9635 2.874 17.5463 3.60184 17.5463C3.96444 17.5463 4.27244 17.4242 4.52897 17.1677L12.0366 9.8167C12.3619 9.49762 12.5093 9.16788 12.5093 8.77158Z" fill="white"/>
 </g>
</svg>
