<?xml version="1.0" encoding="UTF-8"?>
<!--Generator: Apple Native CoreSVG 326-->
<!DOCTYPE svg
PUBLIC "-//W3C//DTD SVG 1.1//EN"
       "http://www.w3.org/Graphics/SVG/1.1/DTD/svg11.dtd">
<svg version="1.1" xmlns="http://www.w3.org/2000/svg" xmlns:xlink="http://www.w3.org/1999/xlink" viewBox="0 0 19.1616 4.14925">
 <g>
  <rect height="4.14925" opacity="0" width="19.1616" x="0" y="0"/>
  <path d="M16.7305 4.13282C17.8739 4.13282 18.8003 3.21003 18.8003 2.06974C18.8003 0.926346 17.8739 0 16.7305 0C15.5902 0 14.6608 0.926346 14.6608 2.06974C14.6608 3.21003 15.5902 4.13282 16.7305 4.13282Z" fill="white" fill-opacity="0.85"/>
  <path d="M9.40013 4.13282C10.5435 4.13282 11.4632 3.21003 11.4632 2.06974C11.4632 0.926346 10.5435 0 9.40013 0C8.25673 0 7.33039 0.926346 7.33039 2.06974C7.33039 3.21003 8.25673 4.13282 9.40013 4.13282Z" fill="white" fill-opacity="0.85"/>
  <path d="M2.06974 4.13282C3.21003 4.13282 4.13282 3.21003 4.13282 2.06974C4.13282 0.926346 3.21003 0 2.06974 0C0.926346 0 0 0.926346 0 2.06974C0 3.21003 0.926346 4.13282 2.06974 4.13282Z" fill="white" fill-opacity="0.85"/>
 </g>
</svg>
