<?xml version="1.0" encoding="UTF-8"?>
<!--Generator: Apple Native CoreSVG 326-->
<!DOCTYPE svg
PUBLIC "-//W3C//DTD SVG 1.1//EN"
       "http://www.w3.org/Graphics/SVG/1.1/DTD/svg11.dtd">
<svg version="1.1" xmlns="http://www.w3.org/2000/svg" xmlns:xlink="http://www.w3.org/1999/xlink" viewBox="0 0 22.1508 22.2281">
 <g>
  <rect height="22.2281" opacity="0" width="22.1508" x="0" y="0"/>
  <path d="M15.5892 21.4548L15.5892 2.66058C15.5892 0.95033 14.6389 0 12.9384 0L4.94357 0C3.22666 0 2.29631 0.95033 2.29631 2.66058L2.29631 21.4548ZM5.34302 8.9874C4.6705 8.9874 4.25013 8.6092 4.25013 8.00148L4.25013 2.95972C4.25013 2.34224 4.66429 1.96048 5.34302 1.96048L12.539 1.96048C13.2146 1.96048 13.6319 2.34224 13.6319 2.95972L13.6319 8.00148C13.6319 8.6092 13.2115 8.9874 12.539 8.9874ZM0.684574 21.2126C0.684574 21.7669 1.1324 22.2214 1.67033 22.2214L16.2019 22.2214C16.7398 22.2214 17.1943 21.7669 17.1943 21.2126C17.1943 20.6746 16.7398 20.2268 16.2019 20.2268L1.67033 20.2268C1.13906 20.2268 0.684574 20.668 0.684574 21.2126ZM19.2931 19.4229C21.117 19.4229 22.1508 18.2004 22.1508 16.0445C22.1508 13.5809 21.6909 10.7213 20.7512 6.32768L20.5555 5.38924C20.3317 4.37586 20.0264 3.53871 19.4316 2.79742L18.3436 1.44221C17.7927 0.748888 16.7203 1.55228 17.3134 2.29133L18.6908 4.01363C18.7724 4.1215 18.7822 4.25912 18.7041 4.38963L17.8895 5.89133C17.656 6.33254 17.7049 6.63703 18.0808 7.04894L19.9562 9.05086C20.5373 11.756 20.8356 14.1517 20.8356 16.0445C20.8356 17.3802 20.2874 18.1011 19.2931 18.1011C18.4195 18.1011 17.8677 17.5493 17.8677 16.6229C17.8677 15.1718 18.1021 13.3327 18.1021 11.5722C18.1021 9.81666 17.2405 8.48057 15.0708 7.78455L14.5462 8.98609C16.1615 9.45529 16.79 10.4004 16.79 11.5722C16.79 13.1347 16.5525 14.9769 16.5525 16.6229C16.5525 18.3403 17.6254 19.4229 19.2931 19.4229Z" fill="yellow"/>
 </g>
</svg>
