<svg width="120" height="120" viewBox="0 0 120 120" fill="none" xmlns="http://www.w3.org/2000/svg">
<path d="M18.6384 59.3304C-4.2048 72.5304 -4.2024 93.8904 18.6384 107.09C41.4792 120.29 78.516 120.278 101.359 107.09C124.202 93.9024 124.2 72.5304 101.359 59.3304C78.5184 46.1304 41.4816 46.1424 18.6384 59.3304Z" fill="#455A64"/>
<path d="M18.4416 87.4488L24.0672 90.6984L25.7472 89.7384L20.1144 86.484L18.4416 87.4488ZM8.92078 81.9528L14.5464 85.2L16.2264 84.24L10.5936 80.988L8.92078 81.9528ZM27.9624 92.9472L33.5856 96.1944L35.2656 95.2344L29.64 91.9848L27.9624 92.9472ZM2.18878 78.0672L5.02558 79.704L6.70558 78.744L2.70238 76.4328C2.50318 76.9728 2.33518 77.52 2.18878 78.0672ZM37.4688 98.4432L43.0944 101.69L44.7744 100.73L39.1488 97.4832L37.4688 98.4432ZM56.5224 109.44L62.16 112.685L63.84 111.725L58.1952 108.48L56.5224 109.44ZM67.716 113.971L66.036 114.931L68.8992 116.585C69.8496 116.502 70.7952 116.405 71.736 116.294L67.716 113.971ZM47.0016 103.944L52.6272 107.191L54.3072 106.231L48.6816 102.984L47.0016 103.944Z" fill="#FAFAFA"/>
<path d="M68.88 116.71L65.8032 114.931L67.7232 113.827L72.1248 116.371L71.7648 116.412C70.8264 116.522 69.8712 116.621 68.9232 116.705L68.88 116.71ZM66.2832 114.931L68.9232 116.462C69.7344 116.39 70.5528 116.309 71.3616 116.222L67.7064 114.113L66.2832 114.931ZM62.16 112.822L56.2824 109.44L58.2024 108.336L64.068 111.722L62.16 112.822ZM56.7624 109.44L62.148 112.56L63.588 111.732L58.2024 108.624L56.7624 109.44ZM52.6272 107.33L46.7616 103.944L48.6816 102.84L54.5472 106.226L52.6272 107.33ZM47.2416 103.944L52.6272 107.064L54.0672 106.236L48.6816 103.116L47.2416 103.944ZM43.1064 101.834L37.2408 98.448L39.1608 97.3439L45.0264 100.73L43.1064 101.834ZM37.7208 98.448L43.1064 101.556L44.5464 100.73L39.1608 97.6103L37.7208 98.448ZM33.5856 96.3383L27.7224 92.9519L29.6424 91.8479L35.508 95.2343L33.5856 96.3383ZM28.2024 92.9519L33.5856 96.0719L35.0256 95.2463L29.64 92.1263L28.2024 92.9519ZM24.0672 90.8399L18.2016 87.4487L20.1216 86.3447L25.9848 89.7311L24.0672 90.8399ZM18.6816 87.4487L24.0672 90.5687L25.5072 89.7408L20.1144 86.6231L18.6816 87.4487ZM14.5464 85.3391L8.68082 81.9527L10.6008 80.8487L16.4592 84.2399L14.5464 85.3391ZM9.16082 81.9527L14.5464 85.0727L15.9864 84.2447L10.5936 81.1199L9.16082 81.9527ZM5.02562 79.8431L2.04962 78.1247L2.07362 78.0359C2.21762 77.4863 2.39042 76.9319 2.58242 76.3871L2.63042 76.2527L6.95042 78.7391L5.02562 79.8431ZM2.32802 77.9999L5.02562 79.5551L6.46562 78.7295L2.76002 76.6055C2.59922 77.0687 2.45522 77.5415 2.32802 77.9999Z" fill="#E0E0E0"/>
<path d="M41.1816 52.9704L14.7216 68.1816C10.9896 70.3272 11.4336 74.0688 15.7152 76.5384L65.976 105.545C87.3912 117.941 123.132 92.1984 106.015 82.5984L53.76 52.3392C49.476 49.8696 44.9136 50.8248 41.1816 52.9704Z" fill="#37474F"/>
<path d="M90.7728 60.1272L59.4672 78.204L18.8304 54.7416L40.1904 40.728C40.4296 40.1442 40.7931 39.6196 41.2556 39.1906C41.7182 38.7616 42.2687 38.4386 42.8688 38.244C43.7016 37.9392 44.6592 37.7016 46.4064 37.5456C49.6773 37.2599 52.9567 37.9899 55.7976 39.636C56.3568 39.9504 57.1296 40.392 58.0728 40.9368C58.7928 41.532 59.7528 42.2208 59.7528 42.2208L90.7728 60.1272Z" fill="#FFFF00"/>
<path d="M90.7608 60.1343H90.7728L59.76 42.2207L59.568 42.0815L59.4696 42.2015V78.2015L90.7608 60.1343Z" fill="#263238"/>
<path opacity="0.15" d="M57.7944 42.2832C57.7944 42.2832 43.92 38.3568 42.732 39.0528C42.3072 39.2928 44.1864 40.1448 46.6248 41.2896C50.9856 43.3416 53.6712 44.6496 53.6712 44.6496L57.7944 42.2832Z" fill="black"/>
<path opacity="0.3" d="M57.3888 41.0712C59.3448 41.6736 58.4904 42.0623 57.9456 41.9423C56.0976 41.5343 49.8456 39.8016 47.3976 39.3504C46.6296 39.2088 45.6792 39.0335 44.9424 38.9279C43.332 38.6879 42.3528 38.6135 44.4408 38.1479C47.1576 37.5431 50.5824 37.8839 52.1976 38.4479C53.8128 39.0119 56.7576 40.4879 56.7576 40.4879C56.7576 40.4879 48.9144 38.5535 48.6216 38.5151C48.3288 38.4767 47.5848 38.5151 49.428 39.0359C51.2712 39.5567 55.44 40.4712 57.3888 41.0712Z" fill="white"/>
<path d="M32.088 54.0576L56.988 39.6816C57.8499 40.0906 58.5998 40.7026 59.1733 41.465C59.7468 42.2275 60.1268 43.1176 60.2808 44.0592L61.4808 51.4584L36.588 65.8368L32.7624 63.9384L32.088 54.0576Z" fill="#37474F"/>
<path d="M32.28 56.8968L59.1888 41.4864C58.6036 40.7236 57.8505 40.106 56.988 39.6816L32.088 54.0576L32.28 56.8968Z" fill="#455A64"/>
<path d="M32.7624 63.9384L32.088 54.0576C32.9499 54.4666 33.6998 55.0785 34.2733 55.841C34.8468 56.6034 35.2268 57.4936 35.3808 58.4352L36.5808 65.8368L32.7624 63.9384Z" fill="#263238"/>
<path d="M35.3784 58.4328L36.5856 65.8368L42.9384 68.9856L62.5056 57.6912L60.2808 44.0592L35.3784 58.4328Z" fill="#37474F"/>
<path d="M61.056 57.7751L86.4888 72.4608L66.924 83.7551L41.4888 69.0695L61.056 57.7751Z" fill="black"/>
<path d="M59.7264 67.9439L62.64 67.8863L67.0728 65.3471C67.4866 65.1392 67.9393 65.0203 68.4018 64.998C68.8644 64.9757 69.3265 65.0505 69.7584 65.2175L75.132 67.6415L78.816 67.5695V69.7295C78.816 69.9695 78.6456 70.2095 78.2952 70.4231L68.64 75.9815C68.2499 76.1832 67.8112 76.2717 67.3735 76.2369C66.9357 76.2021 66.5165 76.0455 66.1632 75.7847L60.1632 70.9223C60.0319 70.827 59.924 70.7032 59.8475 70.5602C59.7711 70.4172 59.728 70.2588 59.7216 70.0967L59.7264 67.9439Z" fill="#37474F"/>
<path d="M78.2928 68.2607L68.64 73.8311C68.2499 74.0328 67.8112 74.1213 67.3735 74.0865C66.9357 74.0517 66.5165 73.8951 66.1632 73.6343L60.1632 68.7695C59.5152 68.2439 59.5776 67.4831 60.3 67.0679L67.0608 63.1967C67.4746 62.9889 67.9273 62.8699 68.3899 62.8476C68.8524 62.8253 69.3145 62.9001 69.7464 63.0671L78.2136 66.8855C78.984 67.2287 79.0152 67.8455 78.2928 68.2607Z" fill="#455A64"/>
<path d="M59.7264 67.9464V70.092C59.732 70.2536 59.7745 70.4118 59.8506 70.5544C59.9267 70.6971 60.0345 70.8205 60.1656 70.9152L66.1656 75.7776C66.5038 76.0378 66.9111 76.1931 67.3368 76.224V74.076C66.9116 74.0429 66.5049 73.8879 66.1656 73.6296L60.1656 68.7624C60.0362 68.6677 59.9296 68.5453 59.8536 68.4041C59.7776 68.2629 59.7341 68.1065 59.7264 67.9464Z" fill="#263238"/>
<path d="M58.8 67.3079C58.7845 67.4039 58.7955 67.5022 58.8319 67.5923C58.8683 67.6824 58.9286 67.7608 59.0064 67.8191L61.464 69.2375C61.3834 69.1816 61.3207 69.1036 61.2832 69.013C61.2458 68.9223 61.2352 68.8228 61.2528 68.7263L61.7856 56.7263C61.8134 56.4527 61.902 56.1888 62.0448 55.9538C62.1877 55.7188 62.3811 55.5187 62.6112 55.3679L68.4 52.0199C68.4885 51.9594 68.5914 51.9231 68.6984 51.9147C68.8053 51.9063 68.9126 51.926 69.0096 51.9719L66.5712 50.5655C66.4727 50.516 66.3628 50.4935 66.2528 50.5003C66.1428 50.507 66.0365 50.5428 65.9448 50.6039L60.1584 53.9471C59.9281 54.0968 59.7346 54.2965 59.5921 54.5312C59.4496 54.766 59.3618 55.0298 59.3352 55.3031L58.8 67.3079Z" fill="#263238"/>
<path d="M68.4 52.02L62.6112 55.3608C62.3806 55.5109 62.1866 55.7109 62.0437 55.946C61.9008 56.1811 61.8126 56.4454 61.7856 56.7192L61.2528 68.7192C61.2312 69.2184 61.5648 69.42 61.9968 69.1704L70.2384 64.4136C70.46 64.27 70.638 64.0683 70.7527 63.8304C70.8674 63.5925 70.9145 63.3276 70.8888 63.0648L69.3168 52.4544C69.3123 52.3501 69.2794 52.249 69.2217 52.1621C69.164 52.0751 69.0836 52.0055 68.9893 51.9608C68.895 51.9161 68.7903 51.898 68.6864 51.9084C68.5826 51.9189 68.4835 51.9574 68.4 52.02Z" fill="#37474F"/>
<path d="M59.5848 54.5351L62.0352 55.9511C62.1747 55.7108 62.3708 55.5082 62.6064 55.3607L68.4 52.0199C68.4886 51.9594 68.5914 51.9231 68.6984 51.9147C68.8053 51.9063 68.9126 51.926 69.0096 51.9719L66.5712 50.5655C66.4727 50.516 66.3628 50.4935 66.2528 50.5003C66.1428 50.507 66.0365 50.5428 65.9448 50.6039L60.1584 53.9471C59.9224 54.0938 59.7256 54.2956 59.5848 54.5351Z" fill="#455A64"/>
<path d="M60.5951 52.7999V49.7999C60.5951 47.6399 61.9679 45.1151 63.6599 44.1359C64.4375 43.6895 65.1455 43.6559 65.6855 43.9439L67.5527 45.0311L66.7199 46.6127V49.2527C66.705 49.5249 66.6262 49.7897 66.4898 50.0257C66.3535 50.2617 66.1635 50.4623 65.9352 50.6111L64.0799 51.6839L62.6783 54.3719L60.8303 53.2967C60.751 53.2419 60.6875 53.1671 60.6462 53.0798C60.6049 52.9926 60.5873 52.8961 60.5951 52.7999Z" fill="#263238"/>
<path d="M63.6599 48.3936L61.2599 47.0064C61.8215 45.78 62.6879 44.7 63.6599 44.1264C64.4375 43.68 65.1455 43.6464 65.6855 43.9344L67.5527 45.0216L66.7199 46.6128V47.1312L63.6599 48.3936Z" fill="#455A64"/>
<path d="M62.4335 53.8583V50.8799C62.4335 48.7199 63.8063 46.1951 65.5007 45.2159C67.1951 44.2367 68.5655 45.1895 68.5655 47.3399V50.3279C68.5512 50.6002 68.4726 50.8652 68.3362 51.1013C68.1998 51.3374 68.0094 51.5379 67.7807 51.6863L63.2207 54.3263C62.7863 54.5615 62.4335 54.3599 62.4335 53.8583Z" fill="#37474F"/>
<path d="M68.2199 54.564C68.9318 57.2129 69.2727 59.9478 69.2327 62.6904C69.2144 62.9707 69.1397 63.2444 69.0131 63.4951C68.8865 63.7458 68.7106 63.9684 68.4959 64.1496C67.0652 65.2091 65.5175 66.1005 63.8831 66.8064C63.7901 66.8578 63.6849 66.8833 63.5786 66.8801C63.4723 66.8769 63.3688 66.8452 63.2789 66.7883C63.1891 66.7313 63.1163 66.6513 63.068 66.5565C63.0198 66.4617 62.9979 66.3557 63.0047 66.2496C62.8385 63.3146 62.8289 60.3728 62.9759 57.4368C63.044 56.869 63.3265 56.3487 63.7655 55.9824C64.8123 55.2153 65.9388 54.5636 67.1255 54.0384C67.2307 53.9888 67.3456 53.9633 67.4619 53.9638C67.5782 53.9642 67.6929 53.9905 67.7978 54.0409C67.9026 54.0912 67.9949 54.1643 68.0679 54.2548C68.1409 54.3453 68.1929 54.4509 68.2199 54.564Z" fill="#455A64"/>
<path opacity="0.15" d="M63.0671 66.5256C63.0293 66.4383 63.0081 66.3447 63.0047 66.2496C62.8385 63.3146 62.8289 60.3728 62.9759 57.4368C63.0055 57.1558 63.092 56.8839 63.2303 56.6376C63.5495 56.1816 63.6623 60.0264 63.6599 62.3712C63.6575 64.716 63.6287 67.032 63.2447 66.7608L63.2015 66.7248C63.1514 66.6621 63.1064 66.5955 63.0671 66.5256Z" fill="black"/>
<g opacity="0.15">
<path d="M68.6975 62.4911L68.5103 62.6111C68.3951 62.6927 68.2247 62.7959 68.0303 62.9255C67.6295 63.1871 67.0943 63.5231 66.5471 63.8375C65.9999 64.1519 65.4407 64.4423 65.0135 64.6559C64.7999 64.7615 64.6223 64.8576 64.4951 64.9152L64.2983 65.0159C64.2983 65.0159 64.3799 65.0159 64.5167 64.9703C64.6535 64.9247 64.8503 64.8912 65.0783 64.8168C65.3407 64.7323 65.5987 64.6346 65.8511 64.524C65.9879 64.4592 66.1319 64.3991 66.2735 64.3247C66.4151 64.2503 66.5543 64.1759 66.6983 64.0991C66.9743 63.9335 67.2479 63.7607 67.4927 63.5831C67.715 63.4205 67.9289 63.2467 68.1335 63.0624C68.3159 62.904 68.4551 62.7552 68.5511 62.6568C68.6471 62.5584 68.6975 62.4911 68.6975 62.4911Z" fill="black"/>
<path d="M68.6975 60.9744C68.6975 60.9744 68.6279 61.0152 68.5103 61.0944C68.3927 61.1736 68.2247 61.2792 68.0303 61.4088C67.6295 61.6704 67.0943 62.0064 66.5471 62.3184C65.9999 62.6304 65.4407 62.9256 65.0135 63.1392C64.7999 63.2448 64.6223 63.3384 64.4951 63.3984L64.2983 63.4992C64.2983 63.4992 64.3799 63.4848 64.5167 63.4536C64.6535 63.4224 64.8503 63.3744 65.0783 63.2976C65.3407 63.214 65.5987 63.1171 65.8511 63.0072C65.9879 62.9424 66.1319 62.8824 66.2735 62.808C66.4151 62.7336 66.5543 62.6568 66.6983 62.58C66.9743 62.4168 67.2479 62.244 67.4927 62.064C67.7155 61.9028 67.9294 61.7298 68.1335 61.5456C68.2795 61.4166 68.4188 61.2805 68.5511 61.1376C68.6399 61.0368 68.6975 60.9744 68.6975 60.9744Z" fill="black"/>
<path d="M68.3831 59.7192L68.2103 59.8272C68.1023 59.9016 67.9439 59.9952 67.7591 60.1152C67.3895 60.3552 66.8975 60.6576 66.3863 60.9312C65.8751 61.2048 65.3519 61.4592 64.9463 61.6512L64.4663 61.8912C64.3511 61.9488 64.2839 61.9872 64.2839 61.9872L64.4855 61.9488C64.6103 61.9176 64.7927 61.8816 65.0063 61.8168C65.2199 61.752 65.4671 61.6728 65.7263 61.5768C65.8559 61.5216 65.9903 61.4712 66.1223 61.4064C66.2543 61.3416 66.3887 61.2744 66.5207 61.2072C66.6527 61.14 66.7799 61.0584 66.9047 60.9816C67.0295 60.9048 67.1447 60.8208 67.2623 60.7416C67.4686 60.5926 67.6666 60.4324 67.8551 60.2616C68.0207 60.1128 68.1479 59.976 68.2367 59.8824C68.3255 59.7888 68.3831 59.7192 68.3831 59.7192Z" fill="black"/>
<path d="M68.2559 58.3032L68.0879 58.4064C67.9847 58.4784 67.8311 58.5696 67.6535 58.6848C67.2959 58.9128 66.8183 59.2056 66.3239 59.4648C65.8295 59.724 65.3183 59.9592 64.9319 60.144L64.4687 60.384L64.2935 60.4776L64.4879 60.4392C64.6103 60.4104 64.7879 60.3768 64.9943 60.3192C65.2007 60.2616 65.4407 60.1872 65.6927 60.0912C65.8175 60.0384 65.9495 59.9928 66.0767 59.9304C66.2039 59.868 66.3359 59.808 66.4631 59.7432C66.5903 59.6784 66.7175 59.604 66.8375 59.5272C66.9575 59.4504 67.0775 59.3736 67.1855 59.2872C67.3855 59.144 67.577 58.9893 67.7591 58.824C67.9175 58.6776 68.0399 58.5456 68.1263 58.4544C68.2127 58.3632 68.2559 58.3032 68.2559 58.3032Z" fill="black"/>
<path d="M68.0399 56.9543L67.8791 57.0503L67.4711 57.3095C67.1327 57.5231 66.6839 57.7895 66.2159 58.0295C65.7479 58.2695 65.2559 58.4735 64.8959 58.6439C64.5359 58.8143 64.2935 58.9463 64.2935 58.9463C64.5168 58.9126 64.7379 58.8661 64.9559 58.8071C65.4379 58.6876 65.9061 58.5179 66.3527 58.3007C66.4727 58.2359 66.5927 58.1711 66.7079 58.1015C66.8231 58.0319 66.9311 57.9575 67.0367 57.8855C67.2253 57.751 67.4049 57.6043 67.5743 57.4463C67.7414 57.294 67.897 57.1296 68.0399 56.9543Z" fill="black"/>
<path d="M67.5383 55.6536C67.5383 55.6536 67.3295 55.7712 67.0367 55.9584C66.7439 56.1456 66.3503 56.376 65.9447 56.5848C65.5391 56.7936 65.1239 56.9952 64.8119 57.1512C64.4999 57.3072 64.2935 57.4296 64.2935 57.4296C64.4886 57.4038 64.6818 57.3653 64.8719 57.3144C65.2917 57.206 65.6982 57.0514 66.0839 56.8536C66.1895 56.796 66.2927 56.7384 66.3935 56.676C66.4943 56.6136 66.5855 56.5488 66.6767 56.484C66.8419 56.366 66.9976 56.2352 67.1423 56.0928C67.2858 55.9572 67.4183 55.8103 67.5383 55.6536Z" fill="black"/>
</g>
<path d="M70.6895 65.484C72.2111 65.7576 73.7159 66.5328 75.2111 67.644C75.3032 67.7053 75.3787 67.7885 75.4309 67.886C75.4832 67.9836 75.5105 68.0925 75.5105 68.2032C75.5105 68.3138 75.4832 68.4228 75.4309 68.5203C75.3787 68.6179 75.3032 68.701 75.2111 68.7624C73.4051 70.0874 71.4561 71.2056 69.4007 72.096C68.8685 72.2989 68.2776 72.2834 67.7567 72.0528C66.4832 71.4021 65.313 70.5667 64.2839 69.5736C64.2012 69.493 64.1375 69.3949 64.0975 69.2866C64.0576 69.1782 64.0423 69.0623 64.0529 68.9472C64.0635 68.8322 64.0996 68.721 64.1587 68.6218C64.2178 68.5225 64.2983 68.4377 64.3943 68.3736C65.8135 67.3212 67.3424 66.4256 68.9543 65.7024C69.5063 65.4891 70.102 65.4141 70.6895 65.484Z" fill="#37474F"/>
<g opacity="0.2">
<path d="M74.3999 68.2151C74.3999 68.2151 74.3039 68.2391 74.1407 68.2895C73.9775 68.3399 73.7423 68.4143 73.4687 68.5295C72.796 68.7843 72.1437 69.0899 71.5175 69.4439C70.8916 69.7949 70.2952 70.1962 69.7343 70.6439C69.2807 71.0183 69.0143 71.2991 69.0143 71.2991L69.8423 70.7855C70.3367 70.4759 70.9991 70.0655 71.6735 69.6959C72.3479 69.3263 73.0295 68.9495 73.5455 68.6759L74.1695 68.3447L74.3999 68.2151Z" fill="black"/>
<path d="M72.9456 67.3799C72.9456 67.3799 72.852 67.4039 72.6888 67.4543C72.5256 67.5047 72.2904 67.5791 72.0168 67.6943C71.3441 67.949 70.6918 68.2547 70.0656 68.6087C69.4392 68.9591 68.8428 69.3605 68.2824 69.8087C67.8288 70.1831 67.5624 70.4639 67.5624 70.4639L68.3904 69.9503C68.8848 69.6407 69.5472 69.2423 70.2216 68.8607C70.896 68.4791 71.5776 68.1143 72.0936 67.8431L72.7176 67.5095L72.9456 67.3799Z" fill="black"/>
<path d="M71.7 66.6719C71.7 66.6719 71.6064 66.6959 71.4408 66.7463C71.2752 66.7967 71.0448 66.8711 70.7712 66.9863C70.0985 67.241 69.4462 67.5467 68.82 67.9007C68.1933 68.2505 67.5968 68.6519 67.0368 69.1007C66.7858 69.3077 66.5455 69.5271 66.3168 69.7583L67.1448 69.2423C67.6392 68.9351 68.3016 68.5343 68.976 68.1527C69.6504 67.7711 70.332 67.4063 70.848 67.1351L71.472 66.8015C71.616 66.7199 71.7 66.6719 71.7 66.6719Z" fill="black"/>
<path d="M70.3416 66.0911C70.3416 66.0911 70.2552 66.1127 70.1016 66.1583C69.948 66.2039 69.7344 66.2687 69.4824 66.3647C68.8639 66.5959 68.2644 66.8751 67.6896 67.1999C67.1138 67.5244 66.5669 67.8977 66.0552 68.3159C65.8236 68.5062 65.6025 68.7089 65.3928 68.9231L65.604 68.7959L66.156 68.4551C66.612 68.1743 67.2216 67.8095 67.836 67.4615C68.4504 67.1135 69.0792 66.7751 69.552 66.5231L70.1208 66.2111C70.2648 66.1367 70.3416 66.0911 70.3416 66.0911Z" fill="black"/>
</g>
<path d="M46.4256 75.744L49.3392 75.6864L53.772 73.1472C54.1858 72.9393 54.6385 72.8204 55.1011 72.798C55.5636 72.7757 56.0257 72.8505 56.4576 73.0176L61.8312 75.4416L65.52 75.36V77.52C65.52 77.76 65.3472 78 64.9992 78.2112L55.3512 83.7816C54.9607 83.9832 54.5216 84.0716 54.0835 84.0368C53.6454 84.002 53.2258 83.8455 52.872 83.5848L46.872 78.72C46.7411 78.6246 46.6335 78.5007 46.5575 78.3577C46.4814 78.2147 46.4388 78.0563 46.4328 77.8944L46.4256 75.744Z" fill="#37474F"/>
<path d="M64.992 76.0607L55.344 81.6311C54.9534 81.8322 54.5144 81.9203 54.0764 81.8855C53.6384 81.8508 53.2188 81.6945 52.8648 81.4343L46.872 76.5599C46.2264 76.0343 46.2864 75.2735 47.0112 74.8583L53.772 70.9871C54.1858 70.7793 54.6385 70.6603 55.1011 70.638C55.5636 70.6157 56.0257 70.6905 56.4576 70.8575L64.9224 74.6759C65.6832 75.0287 65.7144 75.6431 64.992 76.0607Z" fill="#455A64"/>
<path d="M46.4232 75.7463V77.8919C46.4291 78.0541 46.472 78.2128 46.5485 78.3558C46.625 78.4989 46.7332 78.6226 46.8648 78.7175L52.8648 83.5799C53.2038 83.8389 53.6107 83.9939 54.036 84.0263V81.8783C53.6104 81.8451 53.2036 81.6892 52.8648 81.4295L46.8648 76.5647C46.7348 76.47 46.6276 76.3473 46.5512 76.2056C46.4748 76.064 46.431 75.9071 46.4232 75.7463Z" fill="#263238"/>
<path d="M45.4944 75.1199C45.4792 75.2156 45.4901 75.3136 45.526 75.4036C45.5619 75.4936 45.6215 75.5722 45.6984 75.6311L48.156 77.0399C48.0757 76.9838 48.0131 76.9058 47.9757 76.8152C47.9383 76.7246 47.9276 76.6252 47.9448 76.5287L48.48 64.5287C48.5071 64.2552 48.5951 63.9912 48.7376 63.7562C48.88 63.5211 49.0733 63.3209 49.3032 63.1703L55.092 59.8295C55.1806 59.769 55.2835 59.7327 55.3904 59.7243C55.4974 59.7159 55.6046 59.7356 55.7016 59.7815L53.2632 58.3727C53.1653 58.3227 53.0557 58.2999 52.946 58.3066C52.8362 58.3134 52.7303 58.3495 52.6392 58.4111L46.8528 61.7519C46.6224 61.9023 46.4287 62.1024 46.2858 62.3374C46.1429 62.5725 46.0546 62.8366 46.0272 63.1103L45.4944 75.1199Z" fill="#263238"/>
<path d="M55.092 59.8199L49.3032 63.1607C49.0733 63.3113 48.88 63.5115 48.7376 63.7466C48.5951 63.9816 48.5071 64.2456 48.48 64.5191L47.9472 76.5191C47.9232 77.0183 48.2568 77.2199 48.6912 76.9703L56.9304 72.2111C57.1521 72.0681 57.3303 71.8668 57.4454 71.6294C57.5605 71.3919 57.6082 71.1274 57.5832 70.8647L56.0088 60.2543C56.0051 60.1497 55.9727 60.0481 55.9152 59.9606C55.8576 59.8731 55.7772 59.8031 55.6825 59.7583C55.5879 59.7134 55.4828 59.6955 55.3786 59.7063C55.2745 59.7172 55.1753 59.7565 55.092 59.8199Z" fill="#37474F"/>
<path d="M46.2816 62.3352L48.732 63.7488C48.873 63.5102 49.0688 63.3086 49.3032 63.1608L55.092 59.82C55.1806 59.7594 55.2835 59.7232 55.3904 59.7147C55.4974 59.7063 55.6047 59.726 55.7016 59.772L53.2632 58.3632C53.1653 58.3131 53.0557 58.2903 52.946 58.2971C52.8362 58.3038 52.7303 58.3399 52.6392 58.4016L46.8528 61.7424C46.6175 61.8911 46.4216 62.0945 46.2816 62.3352Z" fill="#455A64"/>
<path d="M47.2944 60.5879V57.5999C47.2944 55.4399 48.6648 52.9151 50.3592 51.9359C51.1368 51.4871 51.8424 51.4559 52.3824 51.7439L54.2496 52.8287L53.4216 54.4175V57.0575C53.4073 57.3298 53.3287 57.5948 53.1923 57.8309C53.0559 58.067 52.8655 58.2675 52.6368 58.4159L50.772 59.4935L49.368 62.1815L47.52 61.1063C47.439 61.0485 47.3752 60.9697 47.3354 60.8784C47.2957 60.7871 47.2815 60.6867 47.2944 60.5879Z" fill="#263238"/>
<path d="M50.3592 56.1936L47.9592 54.8064C48.5184 53.58 49.3992 52.5 50.3592 51.9264C51.1368 51.4776 51.8424 51.4464 52.3824 51.7344L54.2496 52.8192L53.4216 54.408V54.924L50.3592 56.1936Z" fill="#455A64"/>
<path d="M49.1328 61.6583V58.6703C49.1328 56.5103 50.5056 53.9855 52.1976 53.0063C53.8896 52.0271 55.2624 52.9799 55.2624 55.1303V58.1183C55.2479 58.3903 55.1695 58.6551 55.0336 58.8911C54.8977 59.1271 54.708 59.3277 54.48 59.4767L49.92 62.1167C49.4832 62.3615 49.1328 62.1599 49.1328 61.6583Z" fill="#37474F"/>
<path d="M54.9168 62.3616C55.6294 65.0104 55.971 67.7453 55.932 70.488C55.913 70.7687 55.8378 71.0427 55.7108 71.2938C55.5838 71.5449 55.4077 71.7679 55.1928 71.9496C53.7625 73.0095 52.2146 73.901 50.58 74.6064C50.4869 74.6578 50.3817 74.6833 50.2754 74.6801C50.1691 74.6769 50.0656 74.6452 49.9758 74.5883C49.886 74.5313 49.8131 74.4513 49.7649 74.3565C49.7167 74.2617 49.6948 74.1557 49.7016 74.0496C49.5373 71.1145 49.5285 68.1728 49.6752 65.2368C49.7411 64.6683 50.024 64.1473 50.4648 63.7824C51.5112 63.0147 52.6378 62.3629 53.8248 61.8384C53.9297 61.7888 54.0443 61.7632 54.1603 61.7635C54.2763 61.7638 54.3907 61.7899 54.4954 61.8401C54.6 61.8902 54.6921 61.963 54.765 62.0532C54.8379 62.1434 54.8898 62.2488 54.9168 62.3616Z" fill="#455A64"/>
<path opacity="0.15" d="M49.764 74.3232C49.727 74.2364 49.7059 74.1438 49.7016 74.0496C49.5373 71.1145 49.5285 68.1728 49.6752 65.2368C49.7024 64.9557 49.7882 64.6834 49.9272 64.4376C50.2488 63.9816 50.3616 67.8264 50.3592 70.1688C50.3568 72.5112 50.328 74.8296 49.944 74.5608L49.8984 74.5224C49.8472 74.4606 49.8021 74.3938 49.764 74.3232Z" fill="black"/>
<g opacity="0.15">
<path d="M55.3944 70.2911C55.3944 70.2911 55.3248 70.3319 55.2072 70.4111C55.0896 70.4903 54.9216 70.5959 54.7272 70.7255C54.3288 70.9871 53.7936 71.3231 53.2464 71.6351C52.6992 71.9471 52.1376 72.2423 51.7104 72.4559C51.4968 72.5615 51.3216 72.6575 51.1944 72.7151C51.0672 72.7727 50.9976 72.8159 50.9976 72.8159L51.2136 72.7703C51.3504 72.7367 51.5472 72.6911 51.7776 72.6167C52.0394 72.5326 52.2965 72.4349 52.548 72.3239C52.6848 72.2591 52.8312 72.1991 52.9704 72.1247C53.1096 72.0503 53.2536 71.9759 53.3952 71.8967C53.669 71.739 53.9342 71.5668 54.1896 71.3807C54.4136 71.2202 54.6283 71.0471 54.8328 70.8623C55.0128 70.7039 55.152 70.5551 55.2504 70.4567C55.3488 70.3583 55.3944 70.2911 55.3944 70.2911Z" fill="black"/>
<path d="M55.3944 68.7744C55.3944 68.7744 55.3248 68.8152 55.2072 68.8944C55.0896 68.9736 54.9216 69.0768 54.7272 69.2088C54.3288 69.4704 53.7936 69.8064 53.2464 70.1184C52.6992 70.4304 52.1376 70.7232 51.7104 70.9368C51.4968 71.0448 51.3216 71.1384 51.1944 71.1984C51.0672 71.2584 50.9976 71.2992 50.9976 71.2992L51.2136 71.2536C51.3504 71.2176 51.5472 71.1744 51.7776 71.0976C52.0397 71.0145 52.2969 70.9168 52.548 70.8048C52.6848 70.7424 52.8312 70.6824 52.9704 70.608C53.1096 70.5336 53.2536 70.4568 53.3952 70.38C53.669 70.2222 53.9342 70.05 54.1896 69.864C54.4136 69.7034 54.6283 69.5303 54.8328 69.3456C55.0128 69.1872 55.152 69.0384 55.2504 68.9376C55.3488 68.8368 55.3944 68.7744 55.3944 68.7744Z" fill="black"/>
<path d="M55.08 67.5192L54.9072 67.6272C54.8016 67.7016 54.6432 67.7952 54.4584 67.9152C54.0888 68.1552 53.5944 68.4576 53.0856 68.7312C52.5768 69.0048 52.0488 69.2592 51.6456 69.4512L51.1656 69.6912C51.0504 69.7488 50.9856 69.7872 50.9856 69.7872C50.9856 69.7872 51.06 69.7752 51.1872 69.7464C51.3144 69.7176 51.4944 69.6792 51.708 69.6168C51.9519 69.5491 52.1923 69.469 52.428 69.3768C52.5552 69.324 52.692 69.2736 52.8216 69.2064C52.9512 69.1392 53.088 69.0768 53.22 69.0096C53.352 68.9424 53.4816 68.8608 53.604 68.784C53.7264 68.7072 53.844 68.6208 53.964 68.544C54.1703 68.395 54.3682 68.2348 54.5568 68.064C54.7224 67.9152 54.8496 67.776 54.9384 67.6848C55.0272 67.5936 55.08 67.5192 55.08 67.5192Z" fill="black"/>
<path d="M54.96 66.1031C54.96 66.1031 54.8952 66.1391 54.792 66.2063C54.6888 66.2735 54.5328 66.3671 54.3552 66.4847C53.9976 66.7247 53.5224 67.0055 53.0256 67.2647C52.5288 67.5239 52.02 67.7592 51.636 67.944L51.1728 68.1719C51.06 68.2271 50.9976 68.2631 50.9976 68.2631C50.9976 68.2631 51.0696 68.2632 51.192 68.2272C51.3144 68.1912 51.4896 68.1648 51.696 68.1072C51.9024 68.0496 52.1424 67.9728 52.3944 67.8672C52.5192 67.8168 52.6512 67.7712 52.7784 67.7088C52.9056 67.6464 53.0376 67.5864 53.1672 67.5216C53.2968 67.4568 53.4192 67.3824 53.5416 67.3056C53.664 67.2288 53.7816 67.152 53.8872 67.0656C54.0877 66.923 54.2792 66.7683 54.4608 66.6024C54.6216 66.456 54.744 66.3216 54.828 66.2328C54.912 66.144 54.96 66.1031 54.96 66.1031Z" fill="black"/>
<path d="M54.7392 64.7543L54.5784 64.8503L54.168 65.1071C53.7632 65.3688 53.345 65.6091 52.9152 65.8271C52.4472 66.0671 51.9552 66.2711 51.5952 66.4415C51.2352 66.6119 50.9928 66.7439 50.9928 66.7439C50.9928 66.7439 51.2616 66.7055 51.6528 66.6047C52.1346 66.4846 52.6027 66.3149 53.0496 66.0983C53.1696 66.0335 53.2896 65.9687 53.4048 65.8991C53.52 65.8295 53.6304 65.7551 53.736 65.6831C53.9243 65.5474 54.1039 65.3999 54.2736 65.2415C54.4401 65.0903 54.5957 64.9275 54.7392 64.7543Z" fill="black"/>
<path d="M54.24 63.4536C54.24 63.4536 54.0336 63.5711 53.7384 63.7559C53.4432 63.9407 53.0544 64.1759 52.6488 64.3847C52.2432 64.5935 51.828 64.7928 51.516 64.9511C51.204 65.1095 50.9976 65.2296 50.9976 65.2296C51.1927 65.2038 51.3859 65.1653 51.576 65.1143C51.9954 65.0049 52.4018 64.8504 52.788 64.6536C52.8912 64.596 52.9968 64.5383 53.0952 64.4759C53.1936 64.4135 53.2896 64.3488 53.3808 64.284C53.545 64.1646 53.7006 64.0339 53.8464 63.8927C53.9888 63.7568 54.1204 63.61 54.24 63.4536Z" fill="black"/>
</g>
<path d="M57.3888 73.284C58.9104 73.5552 60.4152 74.3328 61.908 75.444C62.0006 75.5047 62.0767 75.5875 62.1293 75.6849C62.1819 75.7823 62.2095 75.8913 62.2095 76.002C62.2095 76.1127 62.1819 76.2217 62.1293 76.3191C62.0767 76.4165 62.0006 76.4993 61.908 76.56C60.1023 77.8862 58.1533 79.0052 56.0976 79.896C55.5651 80.0982 54.9742 80.0818 54.4536 79.8504C53.1793 79.202 52.0089 78.3672 50.9808 77.3736C50.8981 77.293 50.8344 77.1949 50.7944 77.0866C50.7545 76.9782 50.7392 76.8623 50.7498 76.7472C50.7604 76.6322 50.7965 76.521 50.8556 76.4218C50.9147 76.3225 50.9952 76.2377 51.0912 76.1736C52.5106 75.1216 54.0395 74.226 55.6512 73.5024C56.204 73.2892 56.8005 73.2142 57.3888 73.284Z" fill="#37474F"/>
<g opacity="0.2">
<path d="M61.0944 76.0152C61.0944 76.0152 61.0008 76.0392 60.8352 76.0896C60.6696 76.14 60.4392 76.2144 60.1632 76.3296C59.4913 76.5844 58.8398 76.89 58.2144 77.244C57.5877 77.5938 56.9912 77.9952 56.4312 78.444C55.9776 78.8184 55.7112 79.0992 55.7112 79.0992L56.5416 78.5856C57.036 78.276 57.6984 77.8656 58.3728 77.496C59.0472 77.1264 59.7288 76.7496 60.2448 76.476L60.8688 76.1448L61.0944 76.0152Z" fill="black"/>
<path d="M59.6448 75.18C59.6448 75.18 59.5488 75.204 59.3856 75.2544C59.2224 75.3048 58.9896 75.3792 58.7136 75.4944C58.0417 75.7491 57.3902 76.0548 56.7648 76.4088C56.1381 76.7586 55.5416 77.16 54.9816 77.6088C54.7309 77.8151 54.4906 78.0338 54.2616 78.264L55.092 77.7504C55.5864 77.4408 56.2488 77.0304 56.9232 76.6608C57.5976 76.2912 58.2792 75.9144 58.7952 75.6408L59.4192 75.3096L59.6448 75.18Z" fill="black"/>
<path d="M58.3992 74.472C58.3992 74.472 58.3032 74.496 58.14 74.5464C57.9768 74.5968 57.7416 74.6712 57.468 74.7864C56.7955 75.0416 56.1432 75.3472 55.5168 75.7008C54.8912 76.0511 54.2956 76.4525 53.736 76.9008C53.4853 77.1071 53.245 77.3258 53.016 77.556L53.8464 77.0424C54.3408 76.7328 55.0032 76.3344 55.6752 75.9528C56.3472 75.5712 57.0336 75.2064 57.5496 74.9328L58.1712 74.6016L58.3992 74.472Z" fill="black"/>
<path d="M57.0408 73.8912C57.0408 73.8912 56.952 73.9128 56.8008 73.9584C56.6496 74.004 56.4336 74.0688 56.1816 74.1648C55.5634 74.3956 54.964 74.674 54.3888 74.9976C53.8134 75.3235 53.2666 75.6977 52.7544 76.116C52.5225 76.3067 52.3006 76.5094 52.0896 76.7232C52.0896 76.7232 52.1688 76.6776 52.3032 76.5936L52.8552 76.2552C53.3112 75.9744 53.9184 75.6096 54.5352 75.2616C55.152 74.9136 55.7784 74.5752 56.2488 74.3208L56.82 74.0112C56.964 73.9368 57.0408 73.8912 57.0408 73.8912Z" fill="black"/>
</g>
<path d="M60.6648 69.5688C60.4248 68.7288 60.204 68.7768 60.9816 68.3832C62.0136 67.86 63.0816 67.3464 63.2616 67.5816C63.5354 68.1162 63.7357 68.6853 63.8568 69.2736C63.936 69.7104 62.3736 70.056 61.6968 70.176C60.7464 70.3488 60.8088 70.08 60.6648 69.5688Z" fill="#FFFF00"/>
<path d="M76.644 77.844C76.644 77.844 75.5952 80.1168 75.5064 81.0264C75.4128 81.9864 75.168 82.2816 75.2832 83.3232C75.3072 83.5512 75.4056 84.0072 75.4272 84.192C75.4358 84.2312 75.4355 84.2718 75.4264 84.3109C75.4172 84.3499 75.3995 84.3864 75.3744 84.4177C75.3493 84.449 75.3175 84.4743 75.2814 84.4917C75.2453 84.5092 75.2057 84.5183 75.1656 84.5184C74.7504 84.5856 74.1 83.7792 73.812 82.92C73.5234 81.9348 73.295 80.933 73.128 79.92C73.1224 79.6897 73.1779 79.462 73.2888 79.26C73.3461 79.1406 73.4152 79.0272 73.4952 78.9216C73.6488 78.5136 73.752 77.7216 73.8912 77.1912L76.644 77.844Z" fill="#FFBDA7"/>
<path d="M72.2808 80.7384C72.2221 80.833 72.1799 80.9369 72.156 81.0456C72.1392 81.2352 72.5376 81.8784 72.696 82.1136C72.9198 82.4325 73.0134 82.8248 72.9576 83.2104C72.9349 83.8328 73.133 84.4431 73.5168 84.9336C74.0258 85.6101 74.7278 86.1164 75.5304 86.3856C76.5192 86.7384 76.896 86.2536 76.896 86.2536C76.896 86.2536 77.2272 85.7736 77.0496 85.5768C76.872 85.38 72.2808 80.7384 72.2808 80.7384Z" fill="#263238"/>
<path d="M73.4952 78.9096C73.464 78.9096 73.4112 78.8976 73.3272 78.9888C73.296 79.0224 73.0872 79.4688 72.9312 79.6944C72.7752 79.92 72.3504 80.3568 72.2808 80.7384C72.48 81.492 73.1544 82.0392 73.2264 82.7472C73.2984 83.4552 73.2744 84.2688 74.3136 85.176C75.3528 86.0832 76.4568 86.2224 76.8672 86.0136C77.2776 85.8048 77.2584 85.3752 76.74 84.5376C76.188 83.6472 75.876 81.7584 75.876 81.7584C75.8357 81.4938 75.8132 81.2268 75.8088 80.9592C75.8244 80.695 75.8613 80.4326 75.9192 80.1744C75.945 80.0543 75.9324 79.9293 75.8832 79.8168C75.8129 79.7162 75.7131 79.6399 75.5976 79.5984C75.4236 79.5073 75.2401 79.4356 75.0504 79.3848C74.8597 79.3351 74.6579 79.3503 74.4768 79.428C74.3585 79.5053 74.2359 79.5758 74.1096 79.6392C74.0201 79.6705 73.9237 79.6761 73.8312 79.6553C73.7387 79.6345 73.6539 79.5882 73.5864 79.5216C73.5175 79.4619 73.4687 79.3823 73.4468 79.2938C73.4248 79.2053 73.4309 79.1121 73.464 79.0272L73.4952 78.9096Z" fill="#455A64"/>
<path d="M73.7136 84.4584C73.8845 84.1956 74.124 83.9846 74.4061 83.8479C74.6882 83.7113 75.0023 83.6544 75.3144 83.6832C76.4592 83.7408 76.8288 84.3408 76.9944 84.6912C77.1816 85.1088 77.364 85.8576 76.8816 86.0496C76.3608 86.256 75.7752 86.1576 74.8656 85.6488C74.3567 85.3955 73.9501 84.9753 73.7136 84.4584Z" fill="#FAFAFA"/>
<path d="M74.0784 81.0192C74.095 81.0269 74.113 81.0309 74.1312 81.0309C74.1495 81.0309 74.1675 81.0269 74.184 81.0192C74.364 80.9376 75.3096 80.7792 75.8304 81.3144C75.9048 81.2592 75.8952 81.156 75.8112 81.0072C75.5532 80.8524 75.265 80.7549 74.966 80.7214C74.667 80.6878 74.3643 80.719 74.0784 80.8128C74.0653 80.8192 74.0535 80.8281 74.0439 80.8391C74.0342 80.85 74.0268 80.8628 74.0221 80.8766C74.0174 80.8905 74.0156 80.9051 74.0166 80.9197C74.0176 80.9343 74.0215 80.9485 74.028 80.9616C74.0381 80.9858 74.0558 81.006 74.0784 81.0192Z" fill="#FAFAFA"/>
<path d="M75.9192 81.9912C75.9365 81.938 75.9407 81.8815 75.9316 81.8263C75.9224 81.7712 75.9 81.7191 75.8664 81.6744C75.6141 81.5418 75.3379 81.4609 75.0539 81.4366C74.7699 81.4123 74.484 81.445 74.2128 81.5328C74.1992 81.5386 74.187 81.5473 74.1769 81.5582C74.1669 81.5691 74.1592 81.5819 74.1544 81.596C74.1497 81.61 74.1479 81.6249 74.1493 81.6396C74.1507 81.6544 74.1552 81.6687 74.1624 81.6816C74.1733 81.704 74.1909 81.7225 74.2128 81.7344C74.2294 81.7421 74.2474 81.7461 74.2656 81.7461C74.2839 81.7461 74.3019 81.7421 74.3184 81.7344C74.4936 81.66 75.3888 81.5136 75.9192 81.9912Z" fill="#FAFAFA"/>
<path d="M76.32 83.5584C76.3286 83.4077 76.2835 83.259 76.1928 83.1384C75.9364 82.9917 75.6522 82.9002 75.3584 82.8696C75.0645 82.839 74.7676 82.8701 74.4864 82.9608C74.4728 82.9669 74.4605 82.9758 74.4504 82.9869C74.4403 82.9979 74.4325 83.0109 74.4276 83.025C74.4226 83.0392 74.4206 83.0542 74.4217 83.0691C74.4227 83.0841 74.4268 83.0987 74.4336 83.112C74.4454 83.1346 74.4639 83.153 74.4864 83.1648C74.5025 83.1725 74.5202 83.1764 74.538 83.1764C74.5559 83.1764 74.5735 83.1725 74.5896 83.1648C74.7768 83.0808 75.8184 82.9176 76.32 83.5584Z" fill="#FAFAFA"/>
<path d="M74.3472 82.4496C74.3638 82.4573 74.3818 82.4613 74.4 82.4613C74.4183 82.4613 74.4363 82.4573 74.4528 82.4496C74.6304 82.368 75.5568 82.2096 76.0824 82.728C76.0959 82.6683 76.0956 82.6064 76.0814 82.5469C76.0673 82.4874 76.0397 82.432 76.0008 82.3848C75.7487 82.2516 75.4724 82.1705 75.1884 82.1462C74.9043 82.1219 74.6183 82.1548 74.3472 82.2432C74.3336 82.249 74.3214 82.2577 74.3113 82.2685C74.3013 82.2794 74.2936 82.2923 74.2888 82.3063C74.2841 82.3204 74.2823 82.3352 74.2837 82.35C74.2851 82.3648 74.2896 82.3791 74.2968 82.392C74.3069 82.4162 74.3246 82.4364 74.3472 82.4496Z" fill="#FAFAFA"/>
<path d="M77.3136 80.8536C77.3136 80.8536 77.724 83.6136 78.1632 84.9072C78.5592 86.0688 78.7944 86.5368 79.4808 87.4056C79.6296 87.5952 79.9728 87.9504 80.0952 88.104C80.1246 88.1341 80.147 88.1704 80.1606 88.2103C80.1743 88.2501 80.1788 88.2925 80.174 88.3344C80.1692 88.3762 80.1551 88.4165 80.1327 88.4522C80.1104 88.4879 80.0803 88.5181 80.0448 88.5408C79.7088 88.836 78.3408 88.8456 77.6016 88.2384C76.8624 87.6312 76.2216 86.376 75.7848 85.8936C75.6214 85.7146 75.4676 85.5271 75.324 85.332C75.1848 85.1448 75.2328 84.9744 75.228 84.7704C75.228 84.672 75.252 84.4032 75.252 84.4032C75.1704 83.9232 74.9208 83.1528 74.7912 82.6776L77.3136 80.8536Z" fill="#FFBDA7"/>
<path d="M74.88 86.5464C74.8668 86.6634 74.8733 86.7819 74.8992 86.8968C74.9688 87.0864 75.6408 87.5208 75.8976 87.6744C76.2551 87.8776 76.5213 88.21 76.6416 88.6032C76.8994 89.2086 77.3638 89.7027 77.952 89.9976C78.7436 90.4152 79.6433 90.5826 80.532 90.4776C81.636 90.3696 81.7776 89.736 81.7776 89.736C81.7776 89.736 81.8832 89.136 81.6192 89.016C81.3552 88.896 74.88 86.5464 74.88 86.5464Z" fill="#263238"/>
<path d="M75.2208 84.252C75.1896 84.264 75.1344 84.2784 75.096 84.4032C75.0816 84.4488 75.096 84.9648 75.036 85.2576C74.976 85.5504 74.7792 86.1504 74.8848 86.5464C75.4152 87.1776 76.3056 87.3984 76.6944 88.0392C77.0832 88.68 77.4264 89.4792 78.828 89.8704C80.2296 90.2616 81.3504 89.904 81.6456 89.5176C81.9408 89.1312 81.732 88.7328 80.8584 88.1664C79.932 87.564 78.7824 85.9008 78.78 85.9008C78.6227 85.6654 78.4808 85.4201 78.3552 85.1664C78.2544 84.9067 78.1741 84.6395 78.1152 84.3672C78.0855 84.2404 78.0167 84.1262 77.9184 84.0408C77.8055 83.9768 77.6756 83.9491 77.5464 83.9616C77.3398 83.9518 77.1328 83.9663 76.9296 84.0048C76.7246 84.0419 76.5384 84.1477 76.4016 84.3048C76.3056 84.42 76.2504 84.5664 76.1448 84.672C76.073 84.7421 75.983 84.7907 75.8851 84.8123C75.7871 84.834 75.685 84.8278 75.5904 84.7944C75.4974 84.7697 75.4146 84.7163 75.3538 84.6417C75.293 84.5671 75.2574 84.4752 75.252 84.3792L75.2208 84.252Z" fill="#455A64"/>
<path d="M77.9328 89.4552C77.978 89.1272 78.1118 88.8177 78.3199 88.5601C78.528 88.3026 78.8024 88.1067 79.1136 87.9936C80.2344 87.5304 80.8584 87.9384 81.168 88.2C81.5352 88.5144 82.0488 89.148 81.6744 89.5488C81.3 89.9496 80.664 90.1512 79.5648 90.0768C78.966 90.0607 78.3905 89.8415 77.9328 89.4552Z" fill="#FAFAFA"/>
<path d="M76.7304 86.004C76.7495 86.0055 76.7686 86.0024 76.7862 85.9948C76.8037 85.9873 76.8192 85.9756 76.8312 85.9608C76.968 85.8 77.7912 85.2288 78.54 85.5C78.5856 85.416 78.54 85.32 78.3816 85.2144C78.0653 85.1835 77.7461 85.2208 77.4455 85.3239C77.1449 85.427 76.87 85.5935 76.6392 85.812C76.6293 85.824 76.6218 85.8378 76.6174 85.8528C76.6129 85.8677 76.6116 85.8834 76.6134 85.8989C76.6152 85.9144 76.6201 85.9293 76.6278 85.9429C76.6356 85.9564 76.646 85.9682 76.6584 85.9776C76.6787 85.9943 76.7041 86.0037 76.7304 86.004Z" fill="#FAFAFA"/>
<path d="M78.9264 86.1024C78.9188 86.044 78.8975 85.9883 78.8641 85.9399C78.8307 85.8915 78.7862 85.8517 78.7344 85.824C78.4336 85.8111 78.1332 85.8584 77.851 85.9631C77.5687 86.0678 77.3101 86.2277 77.0904 86.4336C77.0801 86.4454 77.0724 86.4592 77.0677 86.4742C77.0631 86.4892 77.0616 86.505 77.0634 86.5206C77.0652 86.5362 77.0703 86.5512 77.0782 86.5647C77.0862 86.5783 77.0969 86.59 77.1096 86.5992C77.1302 86.6156 77.1553 86.6256 77.1816 86.628C77.2005 86.6286 77.2194 86.625 77.2368 86.6175C77.2542 86.6101 77.2698 86.5989 77.2824 86.5848C77.4144 86.4288 78.2064 85.8864 78.9264 86.1024Z" fill="#FAFAFA"/>
<path d="M80.0136 87.4224C79.9525 87.2747 79.8423 87.1526 79.7016 87.0768C79.3902 87.0531 79.0773 87.0945 78.7827 87.1982C78.4881 87.3019 78.2183 87.4657 77.9904 87.6792C77.9805 87.6912 77.973 87.705 77.9686 87.72C77.9641 87.7349 77.9628 87.7506 77.9646 87.7661C77.9664 87.7816 77.9713 87.7965 77.979 87.81C77.9868 87.8236 77.9972 87.8354 78.0096 87.8448C78.0305 87.8608 78.0554 87.8707 78.0816 87.8736C78.1009 87.8739 78.12 87.8702 78.1377 87.8628C78.1555 87.8554 78.1715 87.8443 78.1848 87.8304C78.3264 87.66 79.248 87.0336 80.0136 87.4224Z" fill="#FAFAFA"/>
<path d="M77.6328 87.2496C77.6518 87.2507 77.6708 87.2474 77.6883 87.2399C77.7058 87.2324 77.7213 87.2209 77.7336 87.2064C77.868 87.048 78.6936 86.4864 79.4136 86.7384C79.3992 86.6743 79.3699 86.6144 79.3283 86.5636C79.2866 86.5128 79.2337 86.4724 79.1736 86.4456C78.8726 86.4324 78.572 86.4797 78.2896 86.5849C78.0072 86.69 77.7487 86.8507 77.5296 87.0576C77.5192 87.0693 77.5113 87.083 77.5065 87.0979C77.5016 87.1128 77.5 87.1285 77.5016 87.1441C77.5031 87.1597 77.5079 87.1747 77.5157 87.1884C77.5234 87.202 77.5339 87.2138 77.5464 87.2232C77.5708 87.2427 77.6017 87.2521 77.6328 87.2496Z" fill="#FAFAFA"/>
<path d="M71.8512 63.2472C73.0632 64.224 76.9296 67.0632 78.6264 68.7864C79.1184 69.2832 79.5552 70.2408 79.1664 71.5512C78.5376 73.6704 76.5408 78.156 76.5408 78.156C75.5351 78.1777 74.5499 77.8701 73.7352 77.28L70.0224 69.8904L71.8512 63.2472Z" fill="#455A64"/>
<path d="M76.8696 77.3592C75.3288 75.948 70.5264 67.5576 70.5264 67.5576L70.7472 67.5192C71.5325 67.0176 72.1533 66.2966 72.5328 65.4456C72.5503 66.2449 72.2559 67.0196 71.712 67.6056C72.1032 67.9752 73.9824 69.7296 75.5232 71.0664C75.9974 71.4243 76.3134 71.9529 76.404 72.54C76.656 74.292 76.9224 77.0112 76.8696 77.3592Z" fill="#263238"/>
<path d="M71.4648 63.36L63.996 64.4376C63.6744 65.8992 63.5664 67.9512 63.9816 68.832C64.3968 69.7128 65.2584 71.0304 66.3456 71.6496C68.7912 73.044 71.3856 74.2512 71.9256 74.5296C72.3264 74.7432 72.3936 74.9568 72.3816 76.2096C72.3816 77.3424 72.6816 78.2424 73.68 80.6352C74.6568 82.98 74.856 83.4864 74.856 83.4864C74.856 83.4864 76.536 83.6976 77.7 82.7664C77.7 82.7664 76.5168 74.8704 76.26 73.4376C76.116 72.6384 76.1328 72.2232 75.1896 71.3088C74.3808 70.524 70.7496 67.5072 70.7496 67.5072C70.7496 67.5072 72.3312 65.58 71.4648 63.36Z" fill="#455A64"/>
<path d="M69.9624 53.4264C70.5504 53.5464 71.6088 53.6856 72.2184 54.576C72.828 55.4664 75.3 59.1744 75.3 59.1744L80.136 60.8784L79.6128 63.0528C79.6128 63.0528 75.9576 62.6256 74.8368 62.3328C73.9008 62.0784 73.4424 61.932 72.72 60.9816C71.9976 60.0312 70.0224 57.084 70.0224 57.084L69.9624 53.4264Z" fill="#FFFF00"/>
<path d="M63.8088 64.9656C64.2888 62.9904 64.4064 62.1672 64.3656 61.5576C64.3656 61.5576 63.516 58.5648 63.3672 57.8544C62.9808 56.004 63.2304 55.0944 63.588 54.8592C64.0265 54.6374 64.4768 54.4395 64.9368 54.2664C66.1944 53.772 68.0448 53.5464 69.2568 53.4456C69.7104 53.424 69.852 53.4264 69.852 53.4264C70.4832 53.8085 71.0757 54.2514 71.6208 54.7488C72.6864 55.7664 73.0608 56.4864 73.0176 57.6432C72.983 58.1492 72.8094 58.6359 72.516 59.0496C72.4944 59.6112 72.528 61.1904 72.528 61.1904C72.6024 61.8048 72.5568 61.7952 73.008 63.2472C72.3096 66.264 65.9472 66.3984 63.8088 64.9656Z" fill="#FAFAFA"/>
<path d="M70.7496 48.6864C71.5656 48.2448 71.5008 46.908 71.1312 46.356C70.488 45.396 69.2112 44.7336 67.4688 44.856C66.3696 44.9352 65.1432 45.3888 64.8456 46.4976C63.7872 46.9272 64.0296 48.3672 64.2528 48.9816C64.7184 50.2752 65.4528 51.3168 65.4048 51.9792L70.7496 48.6864Z" fill="#263238"/>
<path d="M64.8456 46.4976C64.1256 46.6464 63.8856 47.5728 63.8208 49.1064C63.756 50.64 63.636 52.6224 63.636 52.6224L64.4352 52.8408L64.5816 51.8448L64.5936 52.848C66.0552 53.1912 68.304 53.2296 70.8048 52.8984L70.2672 47.9016L64.8456 46.4976Z" fill="#263238"/>
<path d="M69.9768 46.68C70.2552 46.824 70.6176 47.2968 70.656 48.2832C70.656 48.5832 70.788 48.9408 70.8456 49.4832C71.064 51.5808 70.5264 52.0776 69.984 52.3848C69.6647 52.5652 69.3043 52.6602 68.9376 52.6608L68.9592 53.6976C69.2871 54.4254 69.4977 55.2006 69.5832 55.9944C66.6168 55.1208 65.964 53.7168 65.964 53.7168L65.9784 51.4032C65.8411 51.5477 65.657 51.6388 65.4588 51.6603C65.2606 51.6819 65.0612 51.6324 64.896 51.5208C64.3272 51.1968 64.0464 50.2872 64.3752 49.8048C64.443 49.7087 64.5329 49.6303 64.6373 49.5762C64.7417 49.5221 64.8576 49.4939 64.9752 49.4939C65.0928 49.4939 65.2087 49.5221 65.3131 49.5762C65.4175 49.6303 65.5074 49.7087 65.5752 49.8048C65.8536 50.172 66.3072 50.1384 66.072 49.5648C66.3264 49.4112 66.8784 49.0848 66.5208 48.024C66.4759 47.8469 66.4714 47.662 66.5075 47.483C66.5436 47.304 66.6195 47.1353 66.7296 46.9896C67.1328 46.548 67.9896 46.536 68.5296 46.9776C68.6937 46.7609 68.931 46.6113 69.1972 46.5565C69.4635 46.5018 69.7405 46.5457 69.9768 46.68Z" fill="#FFBDA7"/>
<path d="M68.8704 48.5544L69.2976 50.3544L70.176 49.8216L68.8704 48.5544Z" fill="#F0997A"/>
<path d="M68.9376 52.6728C68.2608 52.7064 66.7776 52.4856 66.3408 51.6288C66.3408 51.6288 66.4584 52.26 67.3368 52.668C67.8471 52.8748 68.3919 52.9831 68.9424 52.9872L68.9376 52.6728Z" fill="#F0997A"/>
<path d="M68.3016 49.0608C68.3021 49.12 68.285 49.1781 68.2525 49.2276C68.22 49.2771 68.1736 49.316 68.1191 49.3392C68.0647 49.3624 68.0045 49.3689 67.9463 49.358C67.8881 49.3471 67.8344 49.3192 67.792 49.2778C67.7496 49.2364 67.7205 49.1834 67.7081 49.1255C67.6958 49.0676 67.701 49.0073 67.7229 48.9522C67.7448 48.8972 67.7825 48.8499 67.8312 48.8162C67.88 48.7826 67.9376 48.7641 67.9968 48.7632C68.0766 48.7626 68.1534 48.7935 68.2105 48.8492C68.2676 48.905 68.3003 48.981 68.3016 49.0608Z" fill="#263238"/>
<path d="M70.32 48.8952C70.3124 48.9541 70.2875 49.0093 70.2485 49.054C70.2095 49.0987 70.1581 49.1309 70.1008 49.1463C70.0436 49.1618 69.983 49.16 69.9268 49.1411C69.8705 49.1222 69.8212 49.087 69.7849 49.04C69.7487 48.993 69.7272 48.9364 69.7232 48.8772C69.7191 48.818 69.7327 48.7589 69.7623 48.7075C69.7918 48.656 69.8359 48.6145 69.889 48.5881C69.9422 48.5617 70.002 48.5516 70.0608 48.5592C70.0999 48.5643 70.1376 48.5769 70.1718 48.5966C70.206 48.6162 70.2359 48.6423 70.26 48.6735C70.2841 48.7047 70.3018 48.7404 70.3121 48.7784C70.3224 48.8164 70.325 48.8561 70.32 48.8952Z" fill="#263238"/>
<path d="M70.2672 47.7192C70.2188 47.6992 70.167 47.6888 70.1146 47.6888C70.0622 47.6888 70.0104 47.6992 69.962 47.7192C69.9137 47.7393 69.8697 47.7687 69.8327 47.8058C69.7957 47.8428 69.7664 47.8868 69.7464 47.9352L70.4808 48.24C70.5013 48.1918 70.5119 48.1401 70.5123 48.0877C70.5126 48.0354 70.5025 47.9835 70.4827 47.935C70.4628 47.8866 70.4335 47.8426 70.3965 47.8056C70.3596 47.7685 70.3156 47.7392 70.2672 47.7192Z" fill="#263238"/>
<path d="M67.44 47.8968C67.3949 47.9233 67.3555 47.9584 67.3241 48.0002C67.2927 48.042 67.2698 48.0895 67.2569 48.1402C67.244 48.1908 67.2412 48.2435 67.2487 48.2953C67.2562 48.347 67.2739 48.3967 67.3008 48.4416L67.9848 48.036C67.9583 47.9909 67.9232 47.9515 67.8814 47.9201C67.8396 47.8887 67.792 47.8658 67.7414 47.8529C67.6907 47.84 67.638 47.8372 67.5863 47.8447C67.5346 47.8522 67.4848 47.8699 67.44 47.8968Z" fill="#263238"/>
<path d="M68.6808 51.1584C68.8072 51.1904 68.941 51.171 69.0531 51.1044C69.1651 51.0378 69.2462 50.9295 69.2784 50.8032L68.3184 50.5632C68.288 50.6901 68.309 50.824 68.3769 50.9355C68.4448 51.047 68.5541 51.1271 68.6808 51.1584Z" fill="#B16668"/>
<path d="M68.3112 50.7192C68.3191 50.8219 68.359 50.9195 68.4253 50.9983C68.4916 51.0771 68.581 51.1331 68.6808 51.1584C68.7821 51.1846 68.8891 51.177 68.9856 51.1368C68.9173 51.0161 68.8197 50.9147 68.7019 50.8417C68.584 50.7687 68.4497 50.7266 68.3112 50.7192Z" fill="#F28F8F"/>
<path d="M65.9664 53.4792C65.9664 53.4792 66.192 53.94 66.5328 54.7464C66.8736 55.5528 66.8352 56.088 67.0608 57.8664C67.2864 59.6448 67.4496 68.0496 67.836 70.0512C66.5112 70.1808 64.1952 69.3144 63.1032 68.34C63.1488 67.5864 63.3216 66.6888 63.6216 64.8408C63.9216 62.9928 64.1208 62.0568 63.924 61.0992C63.7272 60.1416 61.7352 57.6888 63.0624 54.9192C63.0624 54.9192 63.6336 54.6384 64.4904 54.2304C65.448 53.7744 65.9664 53.4792 65.9664 53.4792Z" fill="#FFFF00"/>
<path opacity="0.4" d="M65.9664 53.4792C65.9664 53.4792 66.192 53.94 66.5328 54.7464C66.8736 55.5528 66.8352 56.088 67.0608 57.8664C67.2864 59.6448 67.4496 68.0496 67.836 70.0512C66.5112 70.1808 64.1952 69.3144 63.1032 68.34C63.1488 67.5864 63.3216 66.6888 63.6216 64.8408C63.9216 62.9928 64.1208 62.0568 63.924 61.0992C63.7272 60.1416 61.7352 57.6888 63.0624 54.9192C63.0624 54.9192 63.6336 54.6384 64.4904 54.2304C65.448 53.7744 65.9664 53.4792 65.9664 53.4792Z" fill="white"/>
<path d="M68.9472 53.244V53.4672C69.6253 54.1373 70.2571 54.8525 70.8384 55.608C71.6952 56.7432 71.9256 57.9072 72.0264 59.448C72.0768 60.264 72.3792 62.196 72.6792 63.9936C73.0056 64.2552 73.464 64.5216 73.8792 64.8216C73.7185 64.2426 73.5238 63.6736 73.296 63.1176C73.1112 62.5752 73.032 61.6656 72.9192 60.5256C72.8659 60.0315 72.8482 59.5342 72.8664 59.0376C72.8664 59.0376 73.5096 58.0608 72.9168 56.4192C72.324 54.7776 69.8664 53.3712 69.8664 53.3712C69.8664 53.3712 69.7944 53.352 69.4056 53.3064C69.12 53.28 68.9472 53.244 68.9472 53.244Z" fill="#FFFF00"/>
<path opacity="0.4" d="M68.9472 53.244V53.4672C69.6253 54.1373 70.2571 54.8525 70.8384 55.608C71.6952 56.7432 71.9256 57.9072 72.0264 59.448C72.0768 60.264 72.3792 62.196 72.6792 63.9936C73.0056 64.2552 73.464 64.5216 73.8792 64.8216C73.7185 64.2426 73.5238 63.6736 73.296 63.1176C73.1112 62.5752 73.032 61.6656 72.9192 60.5256C72.8659 60.0315 72.8482 59.5342 72.8664 59.0376C72.8664 59.0376 73.5096 58.0608 72.9168 56.4192C72.324 54.7776 69.8664 53.3712 69.8664 53.3712C69.8664 53.3712 69.7944 53.352 69.4056 53.3064C69.12 53.28 68.9472 53.244 68.9472 53.244Z" fill="white"/>
<path d="M69.8112 53.3016C70.3632 56.0112 70.7712 64.1304 62.8512 67.8816L63.4104 69.2688C63.4104 69.2688 68.3304 68.4768 70.9824 66.9384C73.6344 65.4 73.8624 63.5448 73.8624 63.5448L73.1592 62.8248C73.1592 62.8248 72.1848 66.036 65.2392 67.7328C69.0168 65.5512 72.2664 60.4056 70.8216 53.4096L69.8112 53.3016Z" fill="black"/>
<path d="M77.1192 58.2768C74.928 59.3688 72.9 62.2992 72.5904 64.8192C72.2808 67.3392 73.8072 68.5008 76.0008 67.4088C78.1944 66.3168 80.22 63.3864 80.5296 60.8664C80.8392 58.3464 79.3128 57.1848 77.1192 58.2768ZM78.5472 58.8216C78.6312 59.5416 79.068 59.9592 79.7112 59.928C79.8192 60.3 79.488 60.9384 79.0584 61.1976C78.864 61.3176 78.6456 61.4376 78.408 61.5744C78.3144 61.6272 78.2472 61.5744 78.2616 61.4712C78.2859 61.3759 78.2859 61.2761 78.2616 61.1808C78.1512 60.9216 77.676 60.9816 76.7376 61.4496C75.7992 61.9176 75.2784 62.352 75.0864 62.7624C75.0381 62.8695 75.0081 62.9838 74.9976 63.1008C74.9893 63.158 74.9678 63.2124 74.9349 63.2598C74.902 63.3073 74.8586 63.3465 74.808 63.3744C74.568 63.4776 74.3592 63.564 74.1696 63.6384C73.752 63.8016 73.5432 63.4296 73.7616 62.8968C74.5016 62.2193 75.0553 61.3632 75.3696 60.4104C75.8405 59.8925 76.3985 59.4611 77.0184 59.136C77.4826 58.8738 78.0173 58.7638 78.5472 58.8216ZM73.7472 64.8504C74.1024 64.6248 74.5464 64.3704 75.0816 64.0824C75.1584 64.0416 75.2256 64.0488 75.2592 64.0968L75.3072 64.1568C75.4526 64.3477 75.6656 64.4757 75.9024 64.5144C75.9528 64.5144 75.9792 64.572 75.9672 64.6464C75.912 64.98 75.8568 65.2824 75.7992 65.5488C75.6528 66.2568 74.952 66.9528 74.4912 66.8472C73.9152 66.7176 73.5096 66.2712 73.3656 65.5776C73.3605 65.4339 73.3927 65.2914 73.4592 65.1639C73.5257 65.0365 73.6241 64.9284 73.7448 64.8504H73.7472ZM76.716 65.0904C76.716 64.8504 76.7376 64.5672 76.764 64.248C76.7743 64.1651 76.8124 64.0881 76.872 64.0296C77.1651 63.7136 77.4219 63.3659 77.6376 62.9928L77.7072 62.8752C77.7527 62.7879 77.8239 62.7167 77.9112 62.6712C78.444 62.4312 78.8712 62.244 79.2192 62.1216C79.4592 62.0376 79.572 62.2392 79.4592 62.5368C79.0945 63.5093 78.5507 64.4047 77.856 65.1768C77.3064 65.7768 76.6968 65.736 76.7136 65.0928L76.716 65.0904Z" fill="#37474F"/>
<path d="M76.3656 64.4184C75.96 64.6224 75.6072 64.5072 75.3048 64.1568C75.1497 63.9647 75.0474 63.7356 75.0078 63.4919C74.9682 63.2482 74.9929 62.9984 75.0792 62.7672C75.2712 62.3568 75.7992 61.92 76.7304 61.4544C77.6616 60.9888 78.144 60.9264 78.2544 61.1856C78.3648 61.4448 78.0696 62.2776 77.6352 62.9952C77.2008 63.7128 76.7736 64.2168 76.3656 64.4184Z" fill="#455A64"/>
<path d="M69.972 63.7536C70.3824 63.8808 70.8312 64.068 71.1192 64.128C71.4424 64.2251 71.7896 64.2038 72.0984 64.068C72.3094 63.9897 72.5334 63.9522 72.7584 63.9576C72.6984 64.1819 72.6511 64.4095 72.6168 64.6392C72.6647 64.74 72.7387 64.8261 72.8311 64.8886C72.9236 64.951 73.0311 64.9876 73.1424 64.9944C73.3687 65.0105 73.594 64.9515 73.7832 64.8264C73.9512 64.7208 74.4648 64.3032 74.6328 64.4184C74.7287 64.5033 74.7956 64.6161 74.824 64.7409C74.8524 64.8658 74.841 64.9964 74.7912 65.1144C74.7544 65.1802 74.7239 65.2493 74.7 65.3208C74.6784 65.4096 74.7 65.5032 74.6736 65.592C74.636 65.7024 74.5677 65.7998 74.4768 65.8728C74.2234 66.1083 73.9557 66.3279 73.6752 66.5304C73.4554 66.6961 73.2129 66.8295 72.9552 66.9264C72.3192 67.14 71.7192 66.9912 71.136 66.756C70.7952 66.6216 70.5624 66.5328 70.248 66.42C69.9336 66.3072 69.1608 66.1248 69.1608 66.1248C69.1608 66.1248 69.9672 63.7536 69.972 63.7536Z" fill="#FFBDA7"/>
<path d="M63.0624 54.9192C61.2144 56.0088 61.6224 57.6552 62.196 59.868C62.8368 62.3424 63.156 63.4368 63.408 64.1256C63.7104 64.9248 63.7344 65.196 64.9056 65.4456C66.7392 65.8368 69.3888 66.3456 69.3888 66.3456C70.0656 65.7888 70.7208 64.7712 70.4376 63.84L66.2064 62.472L65.3448 58.8264C65.3448 58.8264 64.6632 55.5984 63.0624 54.9192Z" fill="#FFFF00"/>
<path d="M81.204 61.3848C81.1437 61.3058 81.0736 61.2348 80.9952 61.1736C80.9568 61.1424 80.532 60.8448 80.532 60.852C80.4794 61.2485 80.3951 61.6401 80.28 62.0232C80.1493 62.1644 79.9769 62.2602 79.788 62.2968C79.7184 62.316 79.548 62.364 79.5 62.3184C79.5 62.1672 79.4256 62.1168 79.3392 62.1048C79.2647 62.1597 79.197 62.2234 79.1376 62.2944C79.0841 62.3452 79.0417 62.4065 79.0128 62.4744C79.0026 62.5137 79.0026 62.555 79.0128 62.5944C79.0266 62.6656 79.0467 62.7355 79.0728 62.8032C79.0348 62.8136 79.0003 62.8341 78.9729 62.8623C78.9455 62.8906 78.9261 62.9257 78.9168 62.964C78.9016 63.0414 78.9126 63.1216 78.948 63.192C78.9701 63.231 78.9832 63.2745 78.9864 63.3192C78.9839 63.3389 78.9791 63.3582 78.972 63.3768C78.9479 63.4418 78.9479 63.5134 78.972 63.5784C79.0164 63.631 79.0701 63.6749 79.1304 63.708C79.2475 63.7961 79.3842 63.8546 79.5288 63.8784C79.6604 63.8877 79.7927 63.8747 79.92 63.84C80.0616 63.8088 80.2032 63.7776 80.3424 63.7392C80.4776 63.7146 80.607 63.6649 80.724 63.5928C80.8533 63.4889 80.9602 63.3599 81.0384 63.2136C81.0802 63.1413 81.1163 63.0659 81.1464 62.988C81.2849 62.6488 81.3574 62.2863 81.36 61.92C81.3625 61.8065 81.348 61.6932 81.3168 61.584C81.291 61.5116 81.2528 61.4442 81.204 61.3848Z" fill="#FFBDA7"/>
<path d="M63.3 84.8688C63.3 84.8688 61.9896 87.0456 61.7616 87.948C61.5216 88.8912 61.2288 89.1624 61.1904 90.228C61.1904 90.468 61.2144 90.9336 61.2096 91.1208C61.2117 91.1617 61.2047 91.2025 61.1894 91.2404C61.174 91.2784 61.1505 91.3125 61.1205 91.3403C61.0906 91.3682 61.0549 91.3893 61.016 91.4019C60.977 91.4146 60.9358 91.4185 60.8952 91.4136C60.456 91.4136 59.9064 90.516 59.7384 89.6088C59.5865 88.5754 59.5015 87.5332 59.484 86.4888C59.5122 86.2556 59.6026 86.0343 59.7456 85.848C59.8228 85.7368 59.9104 85.6331 60.0072 85.5384C60.228 85.1496 60.4488 84.3768 60.672 83.8584L63.3 84.8688Z" fill="#C8856A"/>
<path d="M58.488 87.1944C58.414 87.2804 58.3555 87.3787 58.3152 87.4848C58.2672 87.672 58.584 88.38 58.7112 88.6392C58.8935 88.991 58.9314 89.3999 58.8168 89.7792C58.7007 90.4019 58.8141 91.0456 59.136 91.5912C59.562 92.3502 60.2091 92.9613 60.9912 93.3432C61.9512 93.84 62.4144 93.4056 62.4144 93.4056C62.4144 93.4056 62.8248 92.9808 62.6736 92.748C62.5224 92.5152 58.488 87.1944 58.488 87.1944Z" fill="#263238"/>
<path d="M60 85.5288C59.9688 85.5288 59.916 85.5048 59.8176 85.584C59.7792 85.6128 59.5056 86.0304 59.304 86.2368C59.1024 86.4432 58.608 86.82 58.4808 87.1968C58.5744 87.984 59.184 88.6368 59.1552 89.3568C59.1264 90.0768 58.9776 90.8928 59.9112 91.956C60.8448 93.0192 61.9608 93.3168 62.412 93.156C62.8632 92.9952 62.9112 92.5704 62.5008 91.6512C62.0688 90.6768 62.0208 88.7328 62.0208 88.7328C62.0196 88.46 62.0365 88.1874 62.0712 87.9168C62.1276 87.6538 62.2039 87.3955 62.2992 87.144C62.3448 87.0277 62.3516 86.8997 62.3184 86.7792C62.2586 86.6675 62.1666 86.5763 62.0544 86.5176C61.8896 86.401 61.7125 86.3029 61.5264 86.2248C61.3366 86.1476 61.1269 86.1341 60.9288 86.1864C60.7896 86.2296 60.6648 86.316 60.5208 86.3472C60.4252 86.3656 60.3263 86.358 60.2347 86.325C60.1431 86.2921 60.062 86.2351 60 86.16C59.9384 86.0907 59.9004 86.0037 59.8914 85.9114C59.8823 85.8191 59.9027 85.7264 59.9496 85.6464L60 85.5288Z" fill="#37474F"/>
<path d="M59.4096 91.1424C59.6273 90.9018 59.9057 90.7241 60.2156 90.6279C60.5254 90.5316 60.8555 90.5204 61.1712 90.5952C62.34 90.816 62.6304 91.4736 62.7408 91.848C62.8752 92.2944 62.9496 93.0768 62.4264 93.1992C61.86 93.3312 61.2696 93.1488 60.4104 92.5056C59.9296 92.1802 59.576 91.6986 59.4096 91.1424Z" fill="#FAFAFA"/>
<path d="M60.2952 87.7344C60.3104 87.7458 60.3282 87.7535 60.3469 87.7568C60.3657 87.7601 60.3849 87.759 60.4032 87.7536C60.6 87.6984 61.6032 87.6792 62.052 88.2888C62.136 88.2456 62.1408 88.1376 62.0784 87.9768C61.834 87.7838 61.5516 87.6445 61.2497 87.568C60.9478 87.4915 60.6332 87.4795 60.3264 87.5328C60.3118 87.5366 60.2982 87.5434 60.2863 87.5527C60.2745 87.5621 60.2648 87.5738 60.2578 87.5871C60.2508 87.6005 60.2467 87.6151 60.2457 87.6302C60.2447 87.6452 60.2468 87.6603 60.252 87.6744C60.2592 87.6987 60.2744 87.7198 60.2952 87.7344Z" fill="#FAFAFA"/>
<path d="M62.0424 88.9776C62.0685 88.9272 62.0821 88.8712 62.0821 88.8144C62.0821 88.7576 62.0685 88.7017 62.0424 88.6512C61.5544 88.308 60.9508 88.1709 60.3624 88.2696C60.342 88.2761 60.3238 88.2882 60.3098 88.3045C60.2959 88.3209 60.2868 88.3407 60.2836 88.3619C60.2803 88.3831 60.2831 88.4048 60.2915 88.4246C60.2999 88.4443 60.3136 88.4613 60.3312 88.4736C60.3465 88.485 60.3642 88.4927 60.3829 88.496C60.4017 88.4993 60.4209 88.4982 60.4392 88.4928C60.6264 88.4376 61.5696 88.4208 62.0424 88.9776Z" fill="#FAFAFA"/>
<path d="M62.2176 90.612C62.2489 90.4615 62.225 90.3048 62.1504 90.1704C61.9062 89.9854 61.6266 89.8524 61.329 89.7798C61.0314 89.7071 60.722 89.6963 60.42 89.748C60.4053 89.7521 60.3916 89.7591 60.3798 89.7687C60.368 89.7783 60.3583 89.7902 60.3513 89.8037C60.3443 89.8173 60.3402 89.8321 60.3392 89.8473C60.3382 89.8625 60.3404 89.8777 60.3456 89.892C60.3565 89.9216 60.378 89.9461 60.4059 89.9607C60.4339 89.9754 60.4662 89.9791 60.4968 89.9712C60.7056 89.9112 61.8024 89.8944 62.2176 90.612Z" fill="#FAFAFA"/>
<path d="M60.36 89.2128C60.3751 89.2235 60.3924 89.2308 60.4107 89.2341C60.4289 89.2374 60.4477 89.2367 60.4656 89.232C60.6624 89.1768 61.6344 89.1576 62.1 89.7456C62.1228 89.6877 62.1318 89.6252 62.1264 89.5632C62.121 89.5011 62.1013 89.4412 62.0688 89.388C61.5801 89.0464 60.9768 88.9102 60.3888 89.0088C60.3741 89.0129 60.3605 89.0199 60.3486 89.0295C60.3368 89.0391 60.3271 89.051 60.3201 89.0646C60.3131 89.0781 60.309 89.0929 60.308 89.1081C60.307 89.1233 60.3092 89.1385 60.3144 89.1528C60.3223 89.1775 60.3384 89.1986 60.36 89.2128Z" fill="#FAFAFA"/>
<path d="M63.9456 88.272C63.9456 88.272 63.9888 90.4728 64.0344 92.172C64.0704 93.408 64.9944 93.9936 65.7288 94.8288C65.892 95.0112 66.2616 95.3496 66.396 95.496C66.4273 95.525 66.4517 95.5607 66.4674 95.6004C66.4831 95.6401 66.4897 95.6828 66.4867 95.7254C66.4837 95.768 66.4712 95.8094 66.4501 95.8466C66.429 95.8837 66.3998 95.9156 66.3648 95.94C66.0336 96.2544 64.6296 96.3432 63.84 95.772C63.0504 95.2008 62.3352 93.9768 61.8648 93.516C61.6872 93.3432 61.5216 93.1656 61.3632 92.9784C61.2048 92.7912 61.2528 92.6232 61.2384 92.4168C61.2384 92.3184 61.2384 92.0472 61.2384 92.0472C61.1304 91.5672 60.8088 90.0864 60.6528 89.616L63.9456 88.272Z" fill="#C8856A"/>
<path d="M60.972 94.224C60.9636 94.342 60.9758 94.4606 61.008 94.5744C61.0872 94.7616 61.7976 95.16 62.0688 95.2944C62.4437 95.4762 62.7336 95.7962 62.8776 96.1872C63.1754 96.7846 63.6767 97.256 64.2912 97.5168C65.1283 97.8922 66.0584 98.0092 66.9624 97.8528C68.0904 97.6824 68.2056 97.0368 68.2056 97.0368C68.2056 97.0368 68.2848 96.4272 68.0088 96.3168C67.7328 96.2064 60.972 94.224 60.972 94.224Z" fill="#263238"/>
<path d="M61.2 91.8984C61.1712 91.8984 61.1136 91.9272 61.08 92.0544C61.068 92.1024 61.0968 92.6208 61.0584 92.9184C61.02 93.216 60.8376 93.8304 60.9672 94.224C61.5408 94.8288 62.4672 94.9992 62.8872 95.6232C63.3072 96.2472 63.708 97.0224 65.1672 97.3464C66.6264 97.6704 67.7568 97.236 68.0472 96.8328C68.3376 96.4296 68.1 96.0384 67.1736 95.5152C66.1944 94.9632 64.9344 93.3552 64.9344 93.3552C64.7576 93.1268 64.5972 92.8862 64.4544 92.6352C64.3355 92.3804 64.2376 92.1163 64.1616 91.8456C64.1245 91.7193 64.049 91.6078 63.9456 91.5264C63.8255 91.4686 63.6908 91.4485 63.5592 91.4688C63.3466 91.4713 63.1349 91.497 62.928 91.5456C62.7193 91.5955 62.5329 91.7128 62.3976 91.8792C62.324 92.0103 62.2439 92.1377 62.1576 92.2608C62.087 92.3361 61.997 92.3905 61.8975 92.418C61.798 92.4456 61.6928 92.4451 61.5936 92.4168C61.4994 92.3951 61.4139 92.3454 61.3484 92.2743C61.2829 92.2033 61.2403 92.114 61.2264 92.0184L61.2 91.8984Z" fill="#37474F"/>
<path d="M64.2408 96.9792C64.2722 96.6431 64.395 96.322 64.596 96.0508C64.797 95.7796 65.0684 95.5686 65.3808 95.4408C66.5088 94.9128 67.1688 95.2872 67.5 95.5344C67.8936 95.8296 68.46 96.4392 68.0856 96.8616C67.7112 97.284 67.0752 97.5264 65.9448 97.512C64.8144 97.4976 64.2408 96.9792 64.2408 96.9792Z" fill="#FAFAFA"/>
<path d="M62.8392 93.5736C62.8589 93.574 62.8784 93.5699 62.8963 93.5615C62.9142 93.5532 62.9299 93.5409 62.9424 93.5256C63.0744 93.3576 63.9024 92.7336 64.6728 92.964C64.716 92.8776 64.6536 92.7864 64.4976 92.688C64.1716 92.6744 63.8464 92.7293 63.5429 92.8492C63.2395 92.9691 62.9646 93.1513 62.736 93.384C62.7261 93.3967 62.719 93.4112 62.715 93.4268C62.7111 93.4424 62.7105 93.4586 62.7132 93.4744C62.7159 93.4902 62.7219 93.5053 62.7308 93.5186C62.7397 93.532 62.7512 93.5434 62.7648 93.552C62.7869 93.5664 62.8128 93.5739 62.8392 93.5736Z" fill="#FAFAFA"/>
<path d="M65.1 93.5496C65.0886 93.4909 65.0636 93.4358 65.0269 93.3887C64.9902 93.3415 64.9428 93.3038 64.8888 93.2784C64.2644 93.287 63.6685 93.5414 63.2304 93.9864C63.2201 93.9985 63.2125 94.0127 63.2082 94.0281C63.2039 94.0434 63.203 94.0595 63.2055 94.0753C63.208 94.091 63.2139 94.106 63.2227 94.1192C63.2316 94.1325 63.2432 94.1436 63.2568 94.152C63.2782 94.1681 63.3044 94.1765 63.3312 94.176C63.3512 94.1765 63.371 94.1721 63.3889 94.1634C63.4069 94.1546 63.4225 94.1416 63.4344 94.1256C63.5616 93.9624 64.3488 93.372 65.1 93.5496Z" fill="#FAFAFA"/>
<path d="M66.2784 94.8168C66.2084 94.6712 66.0895 94.5548 65.9424 94.488C65.6217 94.4801 65.3028 94.5383 65.0055 94.6588C64.7083 94.7794 64.439 94.9598 64.2144 95.1888C64.2044 95.2011 64.1972 95.2153 64.1931 95.2306C64.189 95.2459 64.1882 95.2619 64.1907 95.2775C64.1932 95.2931 64.1989 95.308 64.2075 95.3213C64.2162 95.3345 64.2275 95.3458 64.2408 95.3544C64.2632 95.3702 64.2901 95.3786 64.3176 95.3784C64.3372 95.3787 64.3566 95.3743 64.3741 95.3655C64.3916 95.3567 64.4068 95.3439 64.4184 95.328C64.56 95.1504 65.4744 94.4664 66.2784 94.8168Z" fill="#FAFAFA"/>
<path d="M63.8256 94.776C63.8449 94.7762 63.864 94.772 63.8815 94.7636C63.899 94.7553 63.9143 94.7431 63.9264 94.728C64.0584 94.56 64.8696 93.9504 65.6328 94.1616C65.6151 94.0986 65.5831 94.0406 65.5394 93.9919C65.4958 93.9432 65.4415 93.9052 65.3808 93.8808C64.7565 93.8878 64.1603 94.1414 63.7224 94.5864C63.712 94.5987 63.7044 94.6132 63.7001 94.6287C63.6958 94.6442 63.6949 94.6605 63.6974 94.6764C63.6999 94.6923 63.7057 94.7075 63.7146 94.721C63.7235 94.7344 63.7351 94.7458 63.7488 94.7544C63.7719 94.7685 63.7985 94.7759 63.8256 94.776Z" fill="#FAFAFA"/>
<path d="M58.632 71.3952C58.632 71.3952 63.7296 74.0208 65.8032 76.2936C66.5472 77.1096 67.0032 77.8176 66.1416 79.8456C65.4792 81.4056 64.3608 83.1168 63.3168 85.1256L54.1968 73.7136L58.632 71.3952Z" fill="#37474F"/>
<path d="M58.632 71.3952C58.632 71.3952 63.7296 74.0208 65.8032 76.2936C66.5472 77.1096 67.0032 77.8176 66.1416 79.8456C65.4792 81.4056 64.3608 83.1168 63.3168 85.1256L54.1968 73.7136L58.632 71.3952Z" fill="#37474F"/>
<path d="M63.4584 84.8616C62.0184 83.4888 57.6336 75.7416 57.6336 75.7416L57.8448 75.7128C58.9992 75.2472 59.5104 73.716 59.5104 73.716C59.5925 74.4146 59.394 75.1173 58.9584 75.6696C59.5872 76.1496 61.0104 77.2728 63.1944 79.0128C63.576 79.3152 64.344 79.8888 64.2648 80.9736C64.1592 82.392 64.0728 83.784 64.0728 83.784L63.4584 84.8616Z" fill="#263238"/>
<path d="M58.6392 71.3952L49.0392 72.5952C49.188 73.7304 49.2288 75.4512 50.0352 76.7352C51.1536 78.5184 51.9144 79.116 54.2184 80.1264C56.5224 81.1368 58.7208 81.9816 59.22 82.2696C59.5968 82.4856 59.5008 83.34 59.5872 84.3528C59.676 85.4136 59.772 86.0064 60.2856 88.284C60.5256 89.3904 60.7992 90.3456 60.7992 90.3456C60.7992 90.3456 62.64 90.6048 64.0368 89.9088C64.0368 89.9088 63.9792 84.3456 63.948 82.98C63.9192 81.8136 64.0296 80.7312 63.1656 79.8384C62.424 79.0704 57.8496 75.7224 57.8496 75.7224C57.8496 75.7224 59.3736 73.5024 58.6392 71.3952Z" fill="#37474F"/>
<path d="M51.0504 72.48L51.18 72.4656C51.18 73.9992 51.3624 75.1704 52.4352 76.332C53.1552 75.8784 53.0208 75.432 52.7808 74.6376C52.7088 74.3976 52.6272 74.1264 52.56 73.8192C52.4456 73.3284 52.3797 72.8276 52.3632 72.324L52.4928 72.3072C52.5087 72.8076 52.5738 73.3052 52.6872 73.7928C52.752 74.0928 52.8336 74.364 52.9056 74.5992C53.1456 75.3936 53.3016 75.924 52.524 76.4256C52.7955 76.7031 53.0876 76.9599 53.3976 77.1936C55.0128 78.4152 57.2976 79.8624 58.6632 80.7264C59.1432 81.0288 59.5176 81.2664 59.712 81.3984C60.504 81.9336 60.516 82.2384 60.4488 83.592C60.3888 84.7752 61.0824 88.752 61.452 90.3816H61.3176C60.9456 88.7184 60.2592 84.7728 60.3192 83.5896C60.3888 82.2216 60.3504 81.9912 59.64 81.5112C59.448 81.3792 59.0712 81.1416 58.5936 80.8416C57.228 79.9752 54.9384 78.5256 53.3136 77.2992C51.3384 75.7944 51.06 74.4264 51.0504 72.48Z" fill="#263238"/>
<path d="M59.1288 68.0016C58.2295 66.9701 57.3874 65.8901 56.6064 64.7664L55.752 60.48C55.752 60.48 57.0408 60.3144 58.08 61.68C58.9392 62.82 59.5752 63.744 60.6264 65.2632C60.6264 65.2632 62.0976 63.2688 62.2776 62.9184C62.4117 62.6434 62.5124 62.3533 62.5776 62.0544C62.7792 61.2336 63.216 60.7776 63.7776 60.1776C63.8736 60.0744 63.9744 59.9712 64.0728 59.8704C64.1229 59.8235 64.1694 59.773 64.212 59.7192C64.2504 59.6664 64.2864 59.6256 64.3632 59.6544C64.4156 59.6789 64.4574 59.7215 64.4808 59.7744C64.5199 59.8624 64.5401 59.9577 64.5401 60.054C64.5401 60.1503 64.5199 60.2456 64.4808 60.3336C64.4007 60.5089 64.3051 60.6768 64.1952 60.8352C64.1184 60.96 64.2864 60.9456 64.3632 60.9264C64.7472 60.8328 65.1864 60.3912 65.4624 60.1176C65.6265 59.9247 65.8046 59.7442 65.9952 59.5776C66.1201 59.48 66.2715 59.4223 66.4296 59.412C66.5376 59.412 66.636 59.4456 66.6264 59.5776C66.611 59.6596 66.5764 59.7369 66.5256 59.8032C66.4737 59.866 66.4358 59.9392 66.4143 60.0178C66.3928 60.0964 66.3882 60.1787 66.4008 60.2592C66.4392 60.3669 66.4642 60.4789 66.4752 60.5928C66.4752 60.7392 66.384 60.8712 66.3648 61.0152C66.3706 61.1389 66.3826 61.2623 66.4008 61.3848C66.3715 61.5319 66.3109 61.6711 66.2232 61.7928C66.0696 62.0559 65.8824 62.2979 65.6664 62.5128C65.3328 62.8396 64.966 63.1308 64.572 63.3816C64.3157 63.5813 64.102 63.8301 63.9432 64.1136C63.7992 64.3872 63.4752 65.256 63.3792 65.5056C63.264 65.808 62.58 67.8456 61.6608 68.7528C61.0728 69.36 60.3552 69.36 59.1288 68.0016Z" fill="#C8856A"/>
<path d="M60.6264 65.28C60.2304 65.76 59.9064 66.6288 59.9904 67.1064C59.832 66.6024 59.9352 65.8128 60.4872 65.076L60.6264 65.28Z" fill="#AF6152"/>
<path d="M54.96 60.4152C57.072 60.3192 57.6144 60.996 58.584 62.256C59.1456 62.988 60.264 64.6896 60.264 64.6896C60.1332 65.2627 59.8543 65.7915 59.4552 66.2232C59.0799 66.5992 58.5812 66.8269 58.0512 66.864L56.5392 64.8L54.96 60.4152Z" fill="#37474F"/>
<path d="M64.1328 61.5096C64.2117 61.7708 64.2272 62.0471 64.1779 62.3154C64.1287 62.5838 64.0161 62.8366 63.8496 63.0528C63.8496 63.0528 64.2312 62.9904 64.3296 62.4C64.4016 61.8696 64.26 61.6608 64.1328 61.5096Z" fill="#AF6152"/>
<path d="M57.9384 64.0272C57.4848 61.3536 56.2272 60.4032 54.8448 60.4128C53.8688 60.424 52.8993 60.5727 51.9648 60.8544C50.2416 61.3704 49.8384 61.7016 49.0848 62.0544C48.588 62.364 47.6448 63.8328 47.7816 65.7408C47.8732 67.5423 48.0607 69.3376 48.3432 71.1192C48.5832 72.672 48.9072 73.704 49.44 75.7152C51.3864 76.1952 57.6528 74.8056 58.8504 71.4888C58.6104 71.0376 58.3704 69.4488 58.2768 68.544C58.1832 67.6392 58.08 64.8696 57.9384 64.0272Z" fill="#455A64"/>
<path d="M51.4272 59.9616C51.264 59.2128 50.4672 58.4592 50.1072 57.816C49.7472 57.1728 49.5336 56.712 49.5432 56.1144C49.5432 55.7592 49.7496 55.2696 50.0064 55.1544C49.936 54.9432 49.9092 54.72 49.9275 54.4982C49.9459 54.2763 50.009 54.0605 50.1131 53.8638C50.2172 53.6671 50.3601 53.4935 50.5331 53.3535C50.7062 53.2136 50.9059 53.1102 51.12 53.0496C51.365 52.9854 51.6055 52.9052 51.84 52.8096C52.1184 52.6776 52.1736 52.4448 52.3944 52.2408C52.7736 51.8856 53.4384 51.8472 53.7144 52.344C53.9544 51.9912 54.3192 51.984 54.7368 52.0704C54.9127 52.1016 55.0702 52.1986 55.1772 52.3417C55.2841 52.4848 55.3326 52.6632 55.3128 52.8408C55.406 52.7744 55.5133 52.7306 55.6264 52.7127C55.7394 52.6949 55.855 52.7035 55.9641 52.7379C56.0732 52.7724 56.1729 52.8317 56.2552 52.9111C56.3375 52.9906 56.4002 53.0881 56.4384 53.196C56.4888 53.436 56.4384 53.6352 56.6136 53.844C56.6463 53.8948 56.6909 53.9368 56.7436 53.9664C56.7963 53.9959 56.8554 54.0121 56.9158 54.0136C56.9762 54.015 57.036 54.0016 57.09 53.9745C57.144 53.9475 57.1906 53.9076 57.2256 53.8584C57.2976 54.1944 57.1776 54.4584 56.808 54.4584C56.8748 54.5498 56.9206 54.6549 56.9422 54.766C56.9638 54.8772 56.9606 54.9918 56.9328 55.1016C56.8945 55.2394 56.8153 55.3623 56.7055 55.454C56.5958 55.5457 56.4608 55.6019 56.3184 55.6152C56.3137 55.7988 56.266 55.9789 56.1792 56.1408C56.0763 56.3094 55.9338 56.4502 55.764 56.5512C55.2016 56.8125 54.6091 57.0035 54 57.12L53.2944 57.3C53.2536 57.3 53.04 57.3336 53.016 57.372L51.4272 59.9616Z" fill="#263238"/>
<path d="M50.4672 59.04C50.6014 59.13 50.7618 59.1723 50.9229 59.1601C51.0839 59.1479 51.2362 59.082 51.3552 58.9728L51.432 61.464C51.8952 62.5128 53.7264 62.6064 54.3744 62.2752C55.0224 61.944 54.9216 61.5552 54.4632 60.9768L54.4896 60.5664C54.7902 60.5583 55.0899 60.5319 55.3872 60.4872C55.9752 60.3768 56.4 59.8776 56.5392 59.2272C56.6862 58.384 56.6707 57.5205 56.4936 56.6832C56.445 56.4797 56.4248 56.2706 56.4336 56.0616C56.4574 55.6073 56.3752 55.1538 56.1936 54.7368C55.5168 54.2424 54.0024 54.132 52.6344 55.0512C52.836 55.8792 52.5408 56.5584 51.948 56.904C51.9864 57.1296 52.0416 57.6984 51.6696 57.7056C51.4008 57.7056 51.3672 57.3744 51.0792 57.0912C50.7912 56.808 50.148 56.76 49.92 57.2064C49.7709 57.526 49.7442 57.8892 49.845 58.2272C49.9459 58.5652 50.1673 58.8544 50.4672 59.04Z" fill="#C8856A"/>
<path d="M52.7136 56.4167L50.9544 56.9879C51.068 57.0528 51.1617 57.1474 51.2256 57.2615L52.7616 56.8319L52.7136 56.4167Z" fill="#263238"/>
<path d="M56.8296 55.7328C56.393 55.7352 55.9605 55.8165 55.5528 55.9728C55.1976 56.148 55.0728 56.2992 54.8784 56.3352C54.684 56.3712 54.5016 56.2632 54.0912 56.2152C53.6254 56.2045 53.1611 56.2735 52.7184 56.4192C52.6746 56.4401 52.639 56.4751 52.6172 56.5186C52.5955 56.5621 52.5889 56.6115 52.5984 56.6592C52.632 56.832 52.7496 56.8416 52.7928 56.9808C52.9296 57.5088 53.0784 58.1112 53.784 58.0224C55.0656 57.84 54.48 56.64 54.96 56.64C55.1424 56.64 55.164 56.9952 55.308 57.2232C55.3635 57.3138 55.4332 57.3948 55.5144 57.4632C55.6087 57.5366 55.7182 57.5878 55.835 57.6132C55.9517 57.6385 56.0726 57.6373 56.1888 57.6096C56.3502 57.5922 56.5017 57.5236 56.6213 57.4139C56.7409 57.3043 56.8223 57.1592 56.8536 57C56.8853 56.7614 56.8982 56.5206 56.892 56.28C56.9112 56.148 57.0048 56.0904 56.9904 55.9152C56.986 55.8718 56.9682 55.8309 56.9393 55.7982C56.9105 55.7655 56.8721 55.7426 56.8296 55.7328ZM54.4968 57.12C54.4855 57.2622 54.4385 57.3992 54.36 57.5184C54.12 57.9 53.34 57.9792 53.1384 57.4992C53.1384 57.4752 53.1144 57.4512 53.1048 57.4272C53.0232 57.228 52.896 56.8032 52.992 56.6616C53.16 56.4216 54.0984 56.2944 54.42 56.5728C54.5068 56.7412 54.5339 56.9342 54.4968 57.12ZM56.7336 56.6688C56.7383 56.7908 56.716 56.9124 56.6683 57.0248C56.6206 57.1372 56.5486 57.2377 56.4576 57.3192C56.2176 57.5208 55.6872 57.4632 55.5576 57.2472C55.442 57.1679 55.3547 57.0537 55.3085 56.9213C55.2623 56.7889 55.2597 56.6452 55.301 56.5112C55.3422 56.3772 55.4253 56.2599 55.5379 56.1764C55.6506 56.0929 55.787 56.0477 55.9272 56.0472C56.1581 55.9538 56.4163 55.9538 56.6472 56.0472C56.7336 56.1072 56.7408 56.4696 56.7336 56.6592V56.6688Z" fill="#37474F"/>
<path d="M55.9536 57.8184L55.0848 58.32L54.72 56.988C54.7536 56.7912 54.792 56.6472 54.96 56.6448L55.0032 56.6808C55.0416 56.712 55.08 56.7456 55.1208 56.784C55.1616 56.8224 55.2576 56.9304 55.332 57.024C55.4352 57.1464 55.5456 57.2856 55.6536 57.4272L55.8 57.6192L55.836 57.6672L55.9536 57.8184Z" fill="#AF6152"/>
<path d="M54.48 60.5544C53.5368 60.4872 52.8168 60.4176 52.296 59.76C52.0524 59.4205 51.8456 59.0561 51.6792 58.6728C51.7607 59.154 51.9187 59.6191 52.1472 60.0504C52.404 60.4728 52.98 60.8304 54.4584 60.8904L54.48 60.5544Z" fill="#AF6152"/>
<path d="M54.1392 56.9448C54.1442 56.9972 54.1335 57.05 54.1085 57.0964C54.0835 57.1428 54.0453 57.1807 53.9988 57.2054C53.9522 57.23 53.8994 57.2404 53.847 57.235C53.7946 57.2297 53.7449 57.2089 53.7043 57.1753C53.6637 57.1418 53.6339 57.0969 53.6188 57.0464C53.6037 56.996 53.6039 56.9421 53.6193 56.8918C53.6348 56.8414 53.6649 56.7968 53.7057 56.7635C53.7466 56.7302 53.7964 56.7098 53.8488 56.7048C53.919 56.6987 53.9888 56.7205 54.0431 56.7654C54.0974 56.8103 54.1319 56.8747 54.1392 56.9448Z" fill="#263238"/>
<path d="M53.8992 55.92L53.2992 56.16C53.2681 56.078 53.27 55.9872 53.3044 55.9067C53.3389 55.8261 53.4033 55.762 53.484 55.728C53.5238 55.7124 53.5664 55.705 53.6091 55.7063C53.6518 55.7075 53.6938 55.7174 53.7326 55.7354C53.7714 55.7533 53.8061 55.7789 53.8348 55.8106C53.8634 55.8424 53.8853 55.8795 53.8992 55.92Z" fill="#263238"/>
<path d="M53.964 58.6272L54.8544 58.8456C54.8221 58.9656 54.7446 59.0685 54.6381 59.1325C54.5315 59.1965 54.4043 59.2167 54.2832 59.1888C54.2244 59.1745 54.1692 59.1483 54.1209 59.1118C54.0727 59.0754 54.0323 59.0294 54.0025 58.9769C53.9726 58.9243 53.9537 58.8661 53.9471 58.806C53.9405 58.7459 53.9463 58.685 53.964 58.6272Z" fill="#AF6152"/>
<path d="M54.5352 59.1768C54.5064 59.0465 54.4304 58.9315 54.3218 58.8539C54.2132 58.7764 54.0798 58.7418 53.9472 58.7568C53.9469 58.856 53.9798 58.9524 54.0407 59.0307C54.1016 59.109 54.187 59.1647 54.2832 59.1888C54.3666 59.209 54.4541 59.2048 54.5352 59.1768Z" fill="#FFA8A7"/>
<path d="M56.1264 55.6799L55.476 55.6367C55.4766 55.5943 55.4858 55.5524 55.5031 55.5136C55.5204 55.4749 55.5454 55.44 55.5766 55.4113C55.6079 55.3825 55.6446 55.3604 55.6847 55.3464C55.7248 55.3323 55.7673 55.3266 55.8096 55.3295C55.897 55.3368 55.9784 55.3771 56.0372 55.4422C56.0961 55.5072 56.1279 55.5922 56.1264 55.6799Z" fill="#263238"/>
<path d="M56.0952 56.688C56.0962 56.7235 56.0901 56.7588 56.0773 56.7919C56.0645 56.8251 56.0453 56.8553 56.0208 56.881C55.9962 56.9067 55.9668 56.9272 55.9343 56.9415C55.9018 56.9557 55.8667 56.9634 55.8312 56.964C55.7762 56.9664 55.7217 56.9522 55.6747 56.9234C55.6278 56.8946 55.5906 56.8523 55.5678 56.8022C55.5451 56.752 55.5379 56.6962 55.5471 56.6419C55.5564 56.5876 55.5817 56.5373 55.6198 56.4975C55.6578 56.4576 55.707 56.4301 55.7608 56.4185C55.8146 56.4068 55.8707 56.4115 55.9219 56.432C55.973 56.4525 56.0168 56.4878 56.0477 56.5335C56.0786 56.5791 56.0952 56.6329 56.0952 56.688Z" fill="#263238"/>
<path d="M56.484 76.5047C55.9536 76.2167 55.428 75.9143 54.9144 75.5975C54.8328 75.5471 54.4872 75.1871 54.7728 75.2711C55.2384 75.4055 55.7328 75.6311 56.2128 75.4583C56.2496 75.4489 56.2824 75.4278 56.3064 75.3983C56.3616 75.3167 56.2752 75.2135 56.1912 75.1583C56.0616 75.0791 55.9176 75.0239 55.7856 74.9495C55.5456 74.8127 55.3272 74.6135 55.0824 74.4695C54.7032 74.2463 54.2664 74.2463 53.8824 74.0759C53.6568 73.9799 50.1792 70.9343 50.1768 70.9871C50.1768 70.9343 50.4552 66.3359 50.4552 66.3359C50.4888 64.4999 50.0544 62.8895 49.104 62.1407C48.4778 62.3743 47.9417 62.8003 47.5728 63.3575C47.2584 63.9071 47.0808 64.7975 47.0016 65.9159C46.8912 67.4711 46.7904 69.0071 46.8072 70.7159C46.8264 72.2975 46.8912 72.4631 48.4872 73.5119C49.0656 73.8911 51.0912 75.0575 51.3456 75.2231C51.5044 75.3221 51.6538 75.4354 51.792 75.5615C51.9792 75.7415 52.116 75.9623 52.3056 76.1375C52.4952 76.3127 52.6992 76.5263 52.9152 76.6991C53.2815 77.0105 53.7104 77.2397 54.1728 77.3711C54.3896 77.3943 54.6077 77.4031 54.8256 77.3975C54.8883 77.409 54.9495 77.4275 55.008 77.4527C55.1972 77.5313 55.4066 77.5473 55.6056 77.4983C55.6431 77.4828 55.6828 77.4731 55.7232 77.4695C55.7694 77.4708 55.815 77.4805 55.8576 77.4983C55.9337 77.5293 56.0156 77.5432 56.0976 77.5391C56.1533 77.5311 56.2065 77.5109 56.2536 77.4801C56.3007 77.4493 56.3404 77.4086 56.3702 77.3608C56.3999 77.3131 56.4188 77.2594 56.4256 77.2036C56.4324 77.1477 56.427 77.0911 56.4096 77.0375C56.4703 77.0409 56.5303 77.0235 56.5797 76.9881C56.6291 76.9526 56.6649 76.9014 56.6812 76.8428C56.6974 76.7842 56.6932 76.7218 56.6691 76.666C56.645 76.6102 56.6026 76.5643 56.5488 76.5359L56.484 76.5047Z" fill="#C8856A"/>
<path d="M49.0992 62.064C48.2808 62.4864 47.9232 62.7504 47.64 63.1176C47.1192 63.792 47.0952 64.4328 46.9896 65.0736C46.884 65.7144 46.7616 69.1272 46.7616 69.1272C46.7616 69.1272 47.1384 69.6864 48.4992 69.8976C49.6992 70.0824 50.3208 69.6576 50.3208 69.6576C50.3208 69.6576 50.4552 67.0176 50.496 66.42C50.5656 65.3832 50.4168 63.0816 49.0992 62.064Z" fill="#37474F"/>
<path d="M50.1744 70.992C49.7765 70.8345 49.356 70.7422 48.9288 70.7184C49.3474 70.658 49.7725 70.658 50.1912 70.7184L50.1744 70.992Z" fill="#AF6152"/>
<path d="M59.2512 71.7048C59.2512 71.7048 59.1816 73.2528 56.4072 74.5248C56.1504 74.6424 55.8912 74.7504 55.6296 74.8512C55.4472 74.7288 55.2792 74.5848 55.0896 74.4744C54.708 74.2512 54.2712 74.2512 53.8896 74.0808C53.8191 74.0376 53.7517 73.9895 53.688 73.9368C55.1424 73.4736 57.312 72.5952 58.6632 71.172C57.7032 69.7536 54.7896 66.2088 50.0688 63.5784C49.4856 63.2496 47.0088 62.2176 46.5216 62.0304L47.3424 60.8304C50.4792 61.5144 54.0096 64.4184 55.8504 66.1368C58.5768 68.688 59.124 70.884 59.124 70.884L59.2512 71.7048Z" fill="black"/>
<path d="M16.956 67.4039L26.9112 61.6536L21.3816 58.4615L15.9984 61.8599L16.956 67.4039Z" fill="#263238"/>
<path d="M21.1536 66.0383L19.7136 63.1991L23.1144 61.2287C24.1944 60.6071 25.6368 60.6791 27.2184 61.5911C30.5784 63.5303 33.3024 68.5343 33.3024 72.7679C33.3024 74.9831 32.5536 76.5479 31.3608 77.2559L31.3128 77.2847L27.84 79.3031L26.3232 76.3199C23.4696 74.1215 21.264 69.8135 21.1536 66.0383Z" fill="#37474F"/>
<path d="M21.1536 66.0383L19.7136 63.1991L23.1144 61.2287C24.1944 60.6071 25.6368 60.6791 27.2184 61.5911C30.5784 63.5303 33.3024 68.5343 33.3024 72.7679C33.3024 74.9831 32.5536 76.5479 31.3608 77.2559L31.3128 77.2847L27.84 79.3031L26.3232 76.3199C23.4696 74.1215 21.264 69.8135 21.1536 66.0383Z" fill="#263238"/>
<path d="M17.6064 67.7856C17.6064 71.4336 19.632 75.6576 22.344 77.9952C22.3479 77.9942 22.352 77.9942 22.356 77.9952C22.7703 78.3555 23.217 78.6769 23.6904 78.9552C27.0504 80.8968 29.7768 79.0368 29.7744 74.8056C29.7744 71.6088 28.2192 67.968 26.0112 65.544C26.0031 65.5395 25.9964 65.5329 25.992 65.5248C25.3254 64.7803 24.5493 64.1418 23.6904 63.6312C20.3304 61.6968 17.6064 63.5544 17.6064 67.7856Z" fill="#37474F"/>
<path d="M23.6904 66.1896C21.552 64.9536 19.8192 66.24 19.8192 69.0696C19.8192 71.8992 21.552 75.18 23.6904 76.4136C25.8288 77.6472 27.5616 76.3632 27.5616 73.5336C27.5616 70.704 25.8288 67.4232 23.6904 66.1896Z" fill="#455A64"/>
<path d="M21.948 70.5047C22.0824 71.9087 22.9752 73.4039 23.9376 73.8407C24.1011 73.9345 24.289 73.9769 24.477 73.9623C24.6649 73.9478 24.8441 73.877 24.9912 73.7591C25.332 73.4735 25.5096 72.8807 25.4328 72.0911C25.2984 70.6871 24.408 69.1919 23.4432 68.7551C23.2261 68.6429 22.9771 68.6082 22.7376 68.6567C22.1784 68.7911 21.84 69.4823 21.948 70.5047Z" fill="#FAFAFA"/>
<path d="M22.2936 70.3199C22.4304 71.7239 23.3208 73.2191 24.2832 73.6559C24.5015 73.767 24.7508 73.8017 24.9912 73.7543C25.332 73.4687 25.5096 72.8759 25.4328 72.0863C25.2984 70.6823 24.408 69.1871 23.4432 68.7503C23.2261 68.6381 22.9771 68.6034 22.7376 68.6519C22.3944 68.9471 22.2168 69.5399 22.2936 70.3199Z" fill="#E0E0E0"/>
<path d="M17.6064 67.7856C17.6064 71.4336 19.632 75.6576 22.344 77.9952C20.7384 76.2456 19.0752 73.3176 18.4872 70.5264C17.9712 68.088 18.1656 64.5864 20.2584 63.7008C22.3512 62.8152 25.1184 64.68 25.992 65.5296C25.3254 64.7852 24.5493 64.1466 23.6904 63.636C20.3304 61.6968 17.6064 63.5544 17.6064 67.7856Z" fill="#455A64"/>
<path d="M15.9552 53.6016C17.1888 50.688 22.332 47.6616 24.5256 48.7608C25.2096 49.1016 27.1656 50.2776 29.6016 51.6888C29.6016 51.6888 32.1384 54.0888 32.088 54.0576L32.5152 60.3408C33.3888 61.9152 37.7952 65.0592 40.8408 66.8208L57.012 76.1568V90.5784L31.7112 75.9624C31.7112 75.5696 31.6912 75.1771 31.6512 74.7864C31.2 70.1304 27.7872 64.7304 24.1272 62.6184C20.1576 60.3264 16.9392 62.4696 16.9392 67.4064L16.296 67.0344C14.0088 65.6544 14.724 56.5128 15.9552 53.6016Z" fill="#FFFF00"/>
<path opacity="0.3" d="M35.3856 64.5432C37.9896 66.3288 40.044 67.7136 40.5984 68.0616C40.2765 68.3727 40.038 68.7598 39.9048 69.1872C39.9048 69.1872 25.8288 61.0632 22.3848 58.02C18.9408 54.9768 17.064 52.1424 19.7136 50.6688C20.5224 50.22 21.276 49.6176 22.248 49.9824C22.319 50.0058 22.3849 50.0425 22.4424 50.0904C22.5284 50.1893 22.5843 50.311 22.6032 50.4408C23.3832 53.4672 25.86 55.7328 27.8592 58.02C29.8296 60.264 32.8536 62.8056 35.3856 64.5432Z" fill="white"/>
<path d="M22.4184 48.6431C23.2392 48.4583 23.9832 48.4727 24.54 48.7511C25.224 49.0919 27.18 50.2703 29.616 51.6815L32.9112 53.5799L50.4768 43.4615C50.4768 43.4615 43.6632 39.9839 41.244 39.0503C38.8248 38.1167 23.1024 46.8311 22.4184 48.6431Z" fill="#FFFF00"/>
<path opacity="0.3" d="M22.4184 48.6431C23.2392 48.4583 23.9832 48.4727 24.54 48.7511C25.224 49.0919 27.18 50.2703 29.616 51.6815L32.9112 53.5799L50.4768 43.4615C50.4768 43.4615 43.6632 39.9839 41.244 39.0503C38.8248 38.1167 23.1024 46.8311 22.4184 48.6431Z" fill="white"/>
<path opacity="0.3" d="M56.5488 77.0688L42.9888 69.3024C42.8509 69.4063 42.7414 69.5431 42.6701 69.7004C42.5988 69.8576 42.5681 70.0302 42.5808 70.2024L56.5488 77.0688Z" fill="white"/>
<path d="M44.9976 72.3959C45.0101 72.4032 45.0243 72.4069 45.0387 72.4069C45.0532 72.4068 45.0673 72.4029 45.0798 72.3956C45.0922 72.3883 45.1025 72.3778 45.1096 72.3652C45.1166 72.3526 45.1202 72.3384 45.12 72.3239V71.9351C45.12 71.6423 44.6832 71.1527 44.1408 70.8407L43.344 70.3799C42.8016 70.0679 42.3648 70.0511 42.3648 70.3439V70.6607C42.3648 70.7258 42.3818 70.7898 42.4143 70.8462C42.4467 70.9026 42.4934 70.9496 42.5496 70.9823L44.9976 72.3959Z" fill="#263238"/>
<g opacity="0.15">
<path d="M23.82 49.6536C22.464 50.436 24.6624 52.7736 27.5928 55.1952L30.2904 52.8888C27.12 50.9952 24.24 49.416 23.82 49.6536Z" fill="black"/>
</g>
<path opacity="0.25" d="M42.1464 68.7C42.1464 68.7 41.3736 69.6048 41.3736 71.58C41.3736 73.944 41.3472 79.56 41.3472 79.56C41.3472 79.56 40.9104 73.32 40.644 71.3472C40.3776 69.3744 41.364 68.28 41.364 68.28L42.1464 68.7Z" fill="black"/>
<path opacity="0.25" d="M26.9112 64.1808C26.9112 64.1808 27.2568 62.5008 27.7416 61.86C28.2264 61.2192 30.804 60.9144 30.804 60.9144C30.804 60.9144 28.7832 61.6104 28.224 62.208C27.6648 62.8056 26.9112 64.1808 26.9112 64.1808Z" fill="black"/>
<path opacity="0.25" d="M19.3968 61.8599C19.3968 61.8599 16.8288 60.3911 16.2768 59.4239C15.7248 58.4567 15.492 55.2335 15.492 55.2335C15.492 55.2335 15.2712 58.9271 15.912 59.8127C16.5528 60.6983 19.3968 61.8599 19.3968 61.8599Z" fill="black"/>
<path d="M74.7432 65.5199C87.024 58.2983 90.7728 60.1415 90.7728 60.1415C90.564 60.9287 89.9328 61.8719 88.2576 63.2327C87.072 64.1927 85.356 65.3423 83.8104 66.3815C80.16 68.9279 76.0104 71.28 74.7576 72.0336C68.484 75.4368 62.2896 78.2735 61.236 77.0111C61.236 77.0111 62.4648 72.7439 74.7432 65.5199Z" fill="#455A64"/>
<path d="M74.7432 65.5199C62.4648 72.7439 61.236 77.0112 61.236 77.0112C66.0192 72.2808 81.6144 61.1568 90.6792 60.1056C90.0384 59.8872 85.932 58.9391 74.7432 65.5199Z" fill="#37474F"/>
<path d="M88.488 57.192L88.7112 58.1231C89.2272 59.0831 90.3648 60.3048 90.7728 60.204C91.1376 60.1128 91.3608 59.5823 91.476 58.9271C91.5309 58.6099 91.563 58.289 91.572 57.9671C91.6056 56.9351 91.1472 54.5279 89.7144 53.8871C89.571 53.8244 89.4113 53.809 89.2586 53.8431C89.1058 53.8772 88.9679 53.959 88.8648 54.0768C88.6733 54.268 88.5309 54.5026 88.4496 54.7607C88.212 55.4879 88.4568 57.1535 88.488 57.192Z" fill="#263238"/>
<path d="M88.7112 58.1231C89.2272 59.0831 90.3648 60.3048 90.7728 60.204C91.1376 60.1128 91.3608 59.5823 91.476 58.9271C91.5309 58.6099 91.563 58.289 91.572 57.9671C91.6056 56.9351 91.1472 54.5279 89.7144 53.8871C89.571 53.8244 89.4113 53.809 89.2586 53.8431C89.1058 53.8772 88.9679 53.959 88.8648 54.0768L89.0616 54.5207C90.0624 54.9479 90.3312 56.4959 90.24 57.672C90.1488 58.8479 89.28 58.7303 88.7112 58.1231Z" fill="#455A64"/>
<path d="M88.452 54.7631C88.8144 54.3791 89.7144 54.3599 90.4704 55.4015C91.2264 56.4431 91.476 58.2263 91.4784 58.9175C91.5325 58.6002 91.5638 58.2794 91.572 57.9575C91.608 56.9255 91.1496 54.5183 89.7168 53.8775C89.1192 53.6207 88.6248 54.2399 88.452 54.7631Z" fill="#37474F"/>
<path d="M57.012 90.5687L66.9672 84.8207L61.4352 81.6263L57.012 84.1919V90.5687Z" fill="#263238"/>
<path d="M61.128 89.04L59.688 86.2008L63.0912 84.2304C64.1736 83.6088 65.6136 83.6808 67.1952 84.5928C70.5552 86.532 73.2792 91.536 73.2792 95.7696C73.2792 97.9848 72.5328 99.5496 71.3376 100.258L71.2896 100.286L67.8 102.3L66.2928 99.3048C63.444 97.1184 61.2384 92.8104 61.128 89.04Z" fill="#37474F"/>
<path d="M61.128 89.04L59.688 86.2008L63.0912 84.2304C64.1736 83.6088 65.6136 83.6808 67.1952 84.5928C70.5552 86.532 73.2792 91.536 73.2792 95.7696C73.2792 97.9848 72.5328 99.5496 71.3376 100.258L71.2896 100.286L67.8 102.3L66.2928 99.3048C63.444 97.1184 61.2384 92.8104 61.128 89.04Z" fill="#263238"/>
<path d="M57.5808 90.7824C57.5808 94.4304 59.6088 98.6544 62.3208 100.992C62.736 101.351 63.1826 101.673 63.6552 101.952C67.0152 103.894 69.7416 102.034 69.7392 97.8024C69.7392 94.6056 68.184 90.9648 65.976 88.5408C65.976 88.5408 65.9616 88.5408 65.9568 88.5216C65.2902 87.7772 64.5141 87.1387 63.6552 86.628C60.3048 84.6936 57.5808 86.5512 57.5808 90.7824Z" fill="#37474F"/>
<path d="M63.6648 89.1863C61.5264 87.9503 59.7936 89.2367 59.7936 92.0663C59.7936 94.8959 61.5264 98.1767 63.6648 99.4103C65.8032 100.644 67.536 99.3599 67.536 96.5303C67.536 93.7007 65.8032 90.4199 63.6648 89.1863Z" fill="#455A64"/>
<path d="M61.92 93.5136C62.0688 94.9176 62.9712 96.4056 63.936 96.8352C64.1004 96.9273 64.2886 96.9681 64.4764 96.9523C64.6642 96.9365 64.8429 96.8647 64.9896 96.7464C65.328 96.456 65.5032 95.8632 65.4192 95.0664C65.2728 93.6624 64.3728 92.1864 63.4032 91.7448C63.1809 91.6322 62.9268 91.5991 62.6832 91.6512C62.1336 91.8 61.8096 92.4936 61.92 93.5136Z" fill="#FAFAFA"/>
<path d="M62.2608 93.3336C62.4072 94.7352 63.312 96.2136 64.2768 96.6528C64.4956 96.7626 64.745 96.7956 64.9848 96.7464C65.3232 96.456 65.4984 95.8632 65.4144 95.0664C65.268 93.6624 64.368 92.1864 63.3984 91.7448C63.1761 91.6322 62.922 91.5991 62.6784 91.6512C62.352 91.9536 62.1792 92.5464 62.2608 93.3336Z" fill="#E0E0E0"/>
<path d="M57.5808 90.7823C57.5808 94.4303 59.6088 98.6543 62.3208 100.992C60.7128 99.2423 59.0496 96.3143 58.4616 93.5231C57.9456 91.0847 58.14 87.5831 60.2352 86.6975C62.3304 85.8119 65.0928 87.6767 65.9664 88.5263C65.2998 87.7819 64.5237 87.1434 63.6648 86.6327C60.3048 84.6935 57.5808 86.5511 57.5808 90.7823Z" fill="#455A64"/>
<path d="M57.012 76.1471C57.012 76.1471 57.588 76.0367 57.4536 75.5351C57.4536 75.5351 60.8448 77.0879 61.5552 77.3231C63.1104 77.8343 68.9472 75.7583 75.2208 72.3527C76.476 71.6063 79.9296 69.8495 83.58 67.3007C85.1256 66.2639 86.46 65.2751 87.648 64.3103C88.6547 63.4988 89.5769 62.5878 90.4008 61.5911C90.6024 61.3511 91.0152 60.6767 90.7704 60.1271C103.212 68.9783 110.033 72.6407 108.571 82.7351C108.503 83.484 108.397 84.2289 108.254 84.9671C107.844 87.2447 106.627 91.1159 103.498 93.3239C100.618 95.3519 100.426 95.5007 96.5376 97.6007C92.6496 99.7007 87.3912 101.239 82.2768 101.074C76.5168 100.889 71.4768 98.6903 71.3136 97.3583C71.2456 96.7575 71.1381 96.1618 70.992 95.5751C70.6163 94.0592 70.0443 92.5989 69.2904 91.2311C68.1408 89.1359 66.6 87.2999 64.8888 86.1119C64.6632 85.9535 64.4352 85.8095 64.2072 85.6775C60.504 83.5367 57.4512 85.2599 57.06 89.5055C57.0312 89.8151 57.0192 90.2255 57.0192 90.5687L57.012 76.1471Z" fill="#FFFF00"/>
<path opacity="0.3" d="M57.012 76.1471C57.012 76.1471 57.588 76.0367 57.4536 75.5351C57.4536 75.5351 60.8448 77.0879 61.5552 77.3231C63.1104 77.8343 68.9472 75.7583 75.2208 72.3527C76.476 71.6063 79.9296 69.8495 83.58 67.3007C85.1256 66.2639 86.46 65.2751 87.648 64.3103C88.6547 63.4988 89.5769 62.5878 90.4008 61.5911C90.6024 61.3511 91.0152 60.6767 90.7704 60.1271C103.212 68.9783 110.033 72.6407 108.571 82.7351C108.503 83.484 108.397 84.2289 108.254 84.9671C107.844 87.2447 106.627 91.1159 103.498 93.3239C100.618 95.3519 100.426 95.5007 96.5376 97.6007C92.6496 99.7007 87.3912 101.239 82.2768 101.074C76.5168 100.889 71.4768 98.6903 71.3136 97.3583C71.2456 96.7575 71.1381 96.1618 70.992 95.5751C70.6163 94.0592 70.0443 92.5989 69.2904 91.2311C68.1408 89.1359 66.6 87.2999 64.8888 86.1119C64.6632 85.9535 64.4352 85.8095 64.2072 85.6775C60.504 83.5367 57.4512 85.2599 57.06 89.5055C57.0312 89.8151 57.0192 90.2255 57.0192 90.5687L57.012 76.1471Z" fill="white"/>
<path d="M96.8088 91.1519C90.7752 94.0032 83.1504 94.3176 77.7456 90.4032C75.5856 88.8384 73.9056 86.712 72.036 84.8016C69.0807 81.7804 65.6424 79.2732 61.8624 77.3832C61.7582 77.3738 61.6552 77.3537 61.5552 77.3232C60.8352 77.0832 57.4536 75.5352 57.4536 75.5352C57.588 76.0368 57.012 76.1472 57.012 76.1472V90.5688C57.012 90.2352 57.012 89.8152 57.0528 89.5056C57.444 85.26 60.4968 83.5368 64.2 85.6776C64.428 85.8096 64.656 85.9536 64.8816 86.112C66.5928 87.3 68.1336 89.136 69.2832 91.2312C70.0371 92.5989 70.6091 94.0592 70.9848 95.5752C71.1309 96.1619 71.2384 96.7575 71.3064 97.3584C71.4648 98.6904 76.5072 100.889 82.2696 101.074C87.384 101.239 92.6352 99.7032 96.5304 97.6008C100.426 95.4984 100.625 95.352 103.49 93.324C106.61 91.116 107.837 87.2448 108.247 84.9672C108.39 84.2289 108.496 83.484 108.564 82.7352C108.612 82.4088 108.648 82.092 108.679 81.7752C105.24 85.56 101.405 88.9799 96.8088 91.1519Z" fill="#FFFF00"/>
<path d="M91.0632 98.2559C94.6512 97.3631 97.2576 95.9495 99.8016 94.4495C102.346 92.9495 104.006 91.5455 104.954 90.3551C105.85 89.2295 106.394 87.7703 105.828 87.9743C104.89 88.7831 102.857 90.5039 101.563 91.2887C97.6872 93.6383 93.5736 96.5495 87.2424 96.6575C86.8345 96.6416 86.4262 96.673 86.0256 96.7511C84.48 97.2119 88.6248 98.8655 91.0632 98.2559Z" fill="#455A64"/>
<path d="M78.0192 95.376C78.372 95.328 79.2528 95.5632 80.748 95.9928C82.2432 96.4224 82.6056 96.4728 83.16 96.8448C83.628 97.1688 84.8832 98.1888 85.488 98.5008C86.448 98.9952 85.488 99.3528 82.8048 99.3552C80.1216 99.3576 79.2048 98.5536 78.5976 97.7304C77.9904 96.9072 77.2152 95.4888 78.0192 95.376Z" fill="#455A64"/>
<path d="M108.502 83.3807C108.456 83.7503 108.379 84.2783 108.262 84.9671C108.055 86.0986 107.733 87.2059 107.302 88.2719C107.171 88.4212 106.995 88.5226 106.8 88.5599C106.342 88.5287 106.735 87.7415 107.062 86.5655C107.388 85.3895 108.204 84.2543 108.502 83.3807Z" fill="#455A64"/>
<path opacity="0.85" d="M89.9136 89.6231C90.4922 90.4013 91.2282 91.049 92.0736 91.5239C92.6424 91.8359 93.6768 91.7375 94.284 91.5071C97.7016 90.2111 100.55 88.5839 102.828 86.6255C103.32 86.2031 103.896 85.3391 103.915 84.6887C103.953 83.6754 103.809 82.6634 103.49 81.7007C103.25 81.0959 102.324 81.1871 101.81 81.5735C98.256 84.1437 94.4434 86.3363 90.4344 88.1159C89.8272 88.3871 89.52 89.0975 89.9136 89.6231ZM90.456 89.0399C90.4758 88.9776 90.5088 88.9203 90.5527 88.8719C90.5966 88.8234 90.6504 88.785 90.7104 88.7591C94.7622 86.9557 98.6164 84.7374 102.211 82.1399C102.35 82.0367 102.722 81.7511 102.835 81.9815C103.112 82.8487 103.236 83.7575 103.2 84.6671C103.2 85.0367 102.78 85.7279 102.358 86.0903C100.152 87.9839 97.3488 89.5823 94.0224 90.8471C93.7037 90.9577 93.3686 91.0137 93.0312 91.0127C92.816 91.0242 92.6009 90.9864 92.4024 90.9023C91.6519 90.4756 90.9982 89.8979 90.4824 89.2055C90.4647 89.1822 90.4531 89.1549 90.4484 89.1261C90.4438 89.0972 90.4464 89.0676 90.456 89.0399Z" fill="#263238"/>
<path d="M90.48 89.2056C90.9957 89.8979 91.6495 90.4757 92.4 90.9024C92.5985 90.9865 92.8135 91.0242 93.0288 91.0128C93.3662 91.0137 93.7013 90.9577 94.02 90.8472C97.3464 89.5824 100.15 87.984 102.355 86.0904C102.778 85.728 103.188 85.0368 103.198 84.6672C103.232 83.7582 103.108 82.8502 102.83 81.984C102.718 81.744 102.35 82.0392 102.206 82.1424C98.6161 84.739 94.7668 86.9572 90.72 88.7616C90.6584 88.786 90.6029 88.8236 90.5573 88.8717C90.5117 88.9197 90.4771 88.9772 90.456 89.04C90.4461 89.0674 90.4431 89.0969 90.4473 89.1258C90.4515 89.1547 90.4627 89.1821 90.48 89.2056Z" fill="black"/>
<path d="M90.252 89.3496L90.2136 89.2392C92.6387 88.2363 94.995 87.0746 97.2672 85.7616C97.0896 85.4016 96.9672 85.1832 96.9624 85.1784L97.5768 84.828C97.5912 84.852 97.7064 85.068 97.8744 85.392C100.495 83.7672 103.003 81.9624 103.03 81.9432L103.099 82.0392C103.073 82.0584 100.555 83.868 97.9272 85.4976C97.9752 85.5936 98.0256 85.6968 98.0784 85.8096C100.699 84.1872 103.054 82.4712 103.078 82.4496L103.147 82.5456C103.123 82.5624 100.759 84.2856 98.1288 85.9056L98.2728 86.2224C100.913 84.5952 103.104 82.968 103.128 82.9512L103.198 83.0448C103.176 83.0616 100.961 84.6984 98.3208 86.3304C98.3664 86.436 98.412 86.5416 98.4576 86.652C101.098 85.02 103.157 83.4768 103.176 83.46L103.248 83.5536C103.226 83.5704 101.162 85.1232 98.5032 86.7624C98.5464 86.8704 98.5896 86.9784 98.6328 87.0912C101.306 85.4448 103.207 83.9856 103.226 83.9712L103.296 84.0648C103.279 84.0792 101.376 85.5504 98.6736 87.204L98.796 87.5352C100.342 86.5978 101.837 85.5787 103.274 84.4824L103.346 84.5736C101.901 85.6774 100.397 86.7029 98.8416 87.6456C98.88 87.756 98.916 87.8688 98.952 87.9816L99.0264 87.9384C100.519 87.0415 101.956 86.0558 103.33 84.9864L103.404 85.0776C102.026 86.1513 100.583 87.1396 99.084 88.0368L98.9856 88.0968C99.0672 88.3632 99.144 88.6368 99.2112 88.9152L98.5248 89.0808C98.4744 88.8744 98.4192 88.668 98.3568 88.4664C96.4289 89.5637 94.4236 90.519 92.3568 91.3248L92.3184 91.2144C94.3848 90.4058 96.39 89.4489 98.3184 88.3512C98.2848 88.236 98.2488 88.1256 98.2104 88.0152C96.2169 89.1546 94.1444 90.1499 92.0088 90.9936L91.9704 90.8832C94.1062 90.0381 96.1787 89.0411 98.172 87.9C98.1336 87.7896 98.0952 87.6792 98.0544 87.5712C95.9983 88.7517 93.8609 89.7847 91.6584 90.6624L91.62 90.5496C93.8224 89.6733 95.959 88.6402 98.0136 87.4584C97.9704 87.348 97.9296 87.2376 97.8864 87.132C95.771 88.3522 93.5719 89.4212 91.3056 90.3312L91.2672 90.2184C93.5315 89.3101 95.7282 88.2418 97.8408 87.0216C97.7952 86.9112 97.752 86.8032 97.7064 86.7C95.5361 87.9571 93.282 89.0637 90.96 90.012L90.9216 89.9016C93.2424 88.9579 95.4957 87.8562 97.6656 86.604C97.6176 86.4936 97.5696 86.388 97.524 86.2872C95.2977 87.5717 92.9877 88.7054 90.6096 89.6808L90.5712 89.5704C92.9449 88.5947 95.2508 87.4618 97.4736 86.1792C97.4208 86.0664 97.3728 85.9632 97.3248 85.8672C95.0469 87.1833 92.6841 88.3467 90.252 89.3496Z" fill="#263238"/>
<path d="M108.59 81.36C107.839 83.52 105.19 86.8032 101.258 89.112C97.3272 91.4208 92.232 94.6008 86.448 94.788C80.664 94.9752 74.7984 92.4528 74.7984 92.4528C74.7984 92.4528 79.656 95.4336 86.4504 95.5848C93.2448 95.736 97.4232 92.7264 101.458 90.2784C105.653 87.732 108.115 84.108 108.59 81.36Z" fill="#FFFF00"/>
<path opacity="0.25" d="M108.59 81.36C107.839 83.52 105.19 86.8032 101.258 89.112C97.3272 91.4208 92.232 94.6008 86.448 94.788C80.664 94.9752 74.7984 92.4528 74.7984 92.4528C74.7984 92.4528 79.656 95.4336 86.4504 95.5848C93.2448 95.736 97.4232 92.7264 101.458 90.2784C105.653 87.732 108.115 84.108 108.59 81.36Z" fill="black"/>
<g opacity="0.3">
<path d="M70.5456 93.2783C72.6919 91.798 75.0576 90.6642 77.556 89.9183C74.8848 90.1356 72.3881 91.3322 70.5456 93.2783ZM72.3984 91.4351C71.184 87.3839 68.0592 84.9551 65.7024 84.7775C67.8792 85.5359 70.4856 88.2767 71.8608 91.7687C72.0456 91.6439 72.3984 91.4399 72.3984 91.4399V91.4351ZM72.1344 92.5247C72.5861 93.8435 72.818 95.2275 72.8208 96.6215C72.9926 95.173 72.9237 93.706 72.6168 92.2799L72.1344 92.5247Z" fill="white"/>
</g>
<path d="M55.8 62.5944L60.444 77.5416C61.788 79.8744 76.0704 72.6432 84.6 66.6288C88.7112 63.732 91.4856 61.1088 90.84 59.9952C88.2672 55.164 85.4256 50.7096 81.0816 46.968C80.64 47.4144 59.4096 61.2288 55.8 62.5944ZM57.4584 64.32C57.18 63.7056 57.504 63.0528 58.1016 62.7432C64.212 59.5704 79.0104 49.8312 80.3472 48.9816C80.8488 48.6576 81.4704 48.5592 81.9192 48.96C85.704 52.3536 87.9192 56.8272 89.9784 60.4224C89.8944 60.7224 89.2392 62.208 84.06 65.8608C76.0464 71.5056 64.9224 77.04 61.6032 77.04C61.4788 77.0438 61.3545 77.0308 61.2336 77.0016L57.4584 64.32Z" fill="#37474F"/>
<path opacity="0.2" d="M58.1016 62.7432C64.212 59.5704 79.0104 49.8312 80.3472 48.9816C80.8704 48.6456 81.4704 48.5592 81.9192 48.96C85.704 52.3536 87.9432 56.9688 89.9784 60.4224C89.8944 60.7224 89.2392 62.208 84.06 65.8608C76.0464 71.5056 64.9224 77.04 61.6032 77.04C61.4789 77.0438 61.3545 77.0309 61.2336 77.0016L57.4584 64.32C57.18 63.7056 57.504 63.0528 58.1016 62.7432Z" fill="white"/>
<path opacity="0.2" d="M72.3264 54.1559C74.8728 52.5167 77.388 50.8223 78.852 49.9487C82.4736 54.4175 85.6536 60.5519 86.8152 63.7919C86.4552 64.0847 86.0512 64.3991 85.6032 64.7351L85.56 64.7687L85.2528 64.9967L85.1856 65.0471L84.8736 65.2871L84.7992 65.3423C84.5592 65.5127 84.3192 65.6903 84.06 65.8703C83.7576 66.0831 83.4512 66.2959 83.1408 66.5087L82.9488 66.6383L82.1688 67.1639L81.9888 67.2815C81.3336 67.7159 80.664 68.1455 79.9872 68.5703C77.7 63.7487 74.2272 56.7119 72.3264 54.1559Z" fill="white"/>
<path opacity="0.2" d="M71.4192 54.72C72.9456 56.784 76.8768 64.5192 78.8592 69.2592C78.2896 69.6048 77.7192 69.9456 77.148 70.2816C74.988 64.7616 73.1328 60.5976 69.8928 55.6536C70.4112 55.3488 70.9056 55.0176 71.4192 54.72Z" fill="white"/>
<path opacity="0.3" d="M58.1016 62.7432C62.46 60.48 71.7408 54.528 76.7232 51.3312C76.7232 51.3312 71.1312 55.9536 66.4416 58.836C61.0584 62.1408 59.1744 62.7888 58.62 63.4992C58.0656 64.2096 58.3584 64.6344 59.0376 67.0296C59.7384 69.492 61.3104 75.1704 61.6512 76.0776C61.992 76.9848 65.8272 75.72 69.8712 73.7832C73.7448 71.928 81.6984 67.4616 83.8104 66.0336C75.816 71.6208 64.8888 77.04 61.6032 77.04C61.4788 77.044 61.3545 77.031 61.2336 77.0016L57.4608 64.32C57.4244 64.2436 57.3978 64.163 57.3816 64.08C57.3379 63.809 57.3847 63.5312 57.5149 63.2895C57.6451 63.0478 57.8513 62.8558 58.1016 62.7432Z" fill="white"/>
<path opacity="0.3" d="M84.0264 65.8824L83.8224 66.024H83.8104L84.0504 65.8488L84.0264 65.8824Z" fill="white"/>
<path d="M53.6016 76.3199C54.0624 78.5135 56.4816 78.9767 58.3104 78.9215C59.2704 78.8951 60.0672 78.7175 60.3096 78.5783C61.0104 78.1727 60.6864 77.3303 60.3096 76.8431C59.6712 76.0175 56.8128 74.3639 55.0176 74.3063C53.9688 74.2703 53.28 74.7815 53.6016 76.3199Z" fill="#263238"/>
<path d="M53.6016 76.32C54.0624 78.5136 56.4816 78.9768 58.3104 78.9216C59.2704 78.8952 60.0672 78.7176 60.3096 78.5784C61.0104 78.1728 60.6864 77.3304 60.3096 76.8432C60.6624 77.5128 58.7904 77.928 57.12 77.3232C55.4496 76.7184 54.2064 75.4344 55.0176 74.3016C53.9688 74.2704 53.28 74.7816 53.6016 76.32Z" fill="#455A64"/>
<path d="M53.6016 76.3199C54.0624 78.5135 56.4816 78.9767 58.3104 78.9215C56.4984 78.8687 55.056 77.8271 54.5112 76.6895C53.9664 75.5519 54.3816 74.4503 55.02 74.3063C53.9688 74.2703 53.28 74.7815 53.6016 76.3199Z" fill="#37474F"/>
<path opacity="0.3" d="M89.9232 91.5936C88.3032 90.2592 86.4456 87.6888 84.3408 85.8336C82.236 83.9784 72.1344 76.6536 72.1344 76.6536C71.2096 77.0194 70.2504 77.2912 69.2712 77.4648C71.4648 78.0528 71.604 77.436 73.92 78.972C76.236 80.508 82.3056 85.0608 84.3192 87.132C86.1312 88.9944 87.7416 91.8096 88.9344 93.2808C90.1272 94.752 92.5776 93.672 94.404 92.8008C92.904 93.4176 91.5456 92.928 89.9232 91.5936ZM83.1168 71.5848C87.9168 75.1848 93.1968 78.7632 96.7968 83.616C94.0464 78.5424 88.0968 74.3448 83.1168 71.5848ZM103.397 77.6016C101.866 75.4824 95.772 69.7248 93.1896 67.44C90.6072 65.1552 91.356 62.7144 91.356 62.7144C91.018 63.3647 90.8024 64.0717 90.72 64.8C90.6 65.9448 92.1288 67.3776 95.0184 70.044C97.908 72.7104 102.979 77.6088 104.287 80.0904C105.655 82.6824 105.883 85.0824 104.602 86.688C107.28 84.108 104.928 79.7208 103.397 77.6016Z" fill="white"/>
<path d="M85.1808 90.2616C85.4956 90.2352 85.8117 90.2944 86.0956 90.433C86.3795 90.5716 86.6207 90.7843 86.7936 91.0488C87.3648 91.9176 88.1712 93.1656 88.2648 93.5616C88.4016 94.1568 87.5448 94.44 85.8072 94.4496C84.0696 94.4592 80.3808 93.9936 78.5088 93.3912C76.26 92.6712 77.2224 91.0152 80.1888 90.7152C82.152 90.5184 84.0504 90.3552 85.1808 90.2616Z" fill="#FAFAFA"/>
<path d="M80.1792 90.7199L80.6832 90.6719C81.4516 91.4542 81.93 92.4753 82.0392 93.5663C82.0584 93.753 82.0584 93.9412 82.0392 94.1279C80.8477 93.975 79.6698 93.7303 78.516 93.3959C76.26 92.6687 77.2224 91.0151 80.1792 90.7199Z" fill="#FFFF00"/>
<path opacity="0.6" d="M80.1792 90.7199L80.6832 90.6719C81.4516 91.4542 81.93 92.4753 82.0392 93.5663C82.0584 93.753 82.0584 93.9412 82.0392 94.1279C80.8477 93.975 79.6698 93.7303 78.516 93.3959C76.26 92.6687 77.2224 91.0151 80.1792 90.7199Z" fill="white"/>
<path d="M105.54 79.2887C105.362 79.6748 105.337 80.1139 105.47 80.5175C106.085 82.3319 106.018 83.4623 106.277 84.0311C106.565 84.6623 107.774 82.6463 108.12 81.2663C108.466 79.8863 108.269 77.7479 107.734 76.1975C107.198 74.6471 106.795 76.0055 106.45 76.9175C106.181 77.6087 105.876 78.5399 105.54 79.2887Z" fill="#FAFAFA"/>
<path d="M106.697 76.26C106.985 75.54 107.321 75 107.734 76.1976C108.147 77.4512 108.332 78.7689 108.281 80.088C108.091 79.213 107.811 78.3604 107.443 77.544C107.258 77.0822 107.006 76.6497 106.697 76.26Z" fill="#FFFF00"/>
<path opacity="0.6" d="M106.697 76.26C106.985 75.54 107.321 75 107.734 76.1976C108.147 77.4512 108.332 78.7689 108.281 80.088C108.091 79.213 107.811 78.3604 107.443 77.544C107.258 77.0822 107.006 76.6497 106.697 76.26Z" fill="white"/>
</svg>
